#N canvas 112 154 1172 614 10;
#X obj 427 317 dac~;
#X obj 154 -123 change;
#X obj 267 -222 textfile;
#X msg 266 -274 rewind, f 8;
#X obj 266 -256 metro 1000;
#X obj 266 -238 bng 15 250 50 0 empty empty empty 17 7 0 10 -262144
-1 -1;
#X obj 266 -310 loadbang;
#X msg 266 -292 read sensors.dat;
#X obj 266 -205 unpack f s f s f s;
#X msg 43 -169 1;
#X msg 103 -169 0;
#X obj 74 -147 tgl 15 0 empty empty empty 17 7 0 10 -262144 -1 -1 0
1;
#X msg 164 -169 1;
#X msg 224 -169 0;
#X obj 200 -147 tgl 15 0 empty empty empty 17 7 0 10 -262144 -1 -1
0 1;
#X obj 43 -187 select rise-begin rise-end fall-begin fall-end none
;
#X msg 401 -169 1;
#X msg 461 -169 0;
#X obj 432 -151 tgl 15 0 empty empty empty 17 7 0 10 -262144 -1 -1
0 1;
#X msg 522 -169 1;
#X msg 582 -169 0;
#X obj 551 -151 tgl 15 0 empty empty empty 17 7 0 10 -262144 -1 -1
0 1;
#X obj 401 -187 select rise-begin rise-end fall-begin fall-end none
;
#X msg 733 -169 1;
#X msg 793 -169 0;
#X obj 764 -151 tgl 15 0 empty empty empty 17 7 0 10 -262144 -1 -1
0 1;
#X msg 824 -169 1;
#X msg 884 -169 0;
#X obj 860 -151 tgl 15 0 empty empty empty 17 7 0 10 -262144 -1 -1
0 1;
#X obj 733 -187 select rise-begin rise-end fall-begin fall-end none
;
#X obj 458 -238 f;
#X obj 480 -238 + 1;
#X obj 537 -220 print;
#X msg 458 -256 0;
#X msg 585 297 stop;
#X msg 484 275 open synth.wav \, start \;;
#X obj 485 314 writesf~ 2;
#X obj 426 256 +~;
#X obj 448 256 +~;
#X obj 35 -53 soundfiler;
#N canvas 0 22 450 300 (subpatch) 0;
#X array temp-sample 140515 float 0;
#X coords 0 1 140514 -1 200 140 1 0 0;
#X restore 98 86 graph;
#X obj 35 -89 loadbang;
#X obj 35 103 line~;
#X msg 62 86 0;
#X obj 35 17 bng 15 250 50 0 empty empty empty 17 7 0 10 -262144 -1
-1;
#X obj 35 32 t b b;
#X obj 35 68 pack f f;
#X floatatom 35 50 5 0 0 0 - - -, f 5;
#X floatatom 154 -51 5 0 0 0 - - -, f 5;
#X obj 154 50 expr (1.0/$f1)*44100;
#X msg 35 -71 read -resize Dong4A-1.wav temp-sample;
#X obj 36 240 tabread4~ temp-sample;
#X obj 154 -93 spigot;
#X obj 154 -34 - 10;
#X floatatom 154 27 5 0 0 0 - - -, f 5;
#X obj 154 6 + 0;
#X obj 489 -132 change;
#X obj 370 -62 soundfiler;
#N canvas 0 22 450 300 (subpatch) 0;
#X array air-sample 41639 float 0;
#X coords 0 1 41638 -1 200 140 1 0 0;
#X restore 436 43 graph;
#X obj 370 -98 loadbang;
#X obj 370 56 line~;
#X msg 397 39 0;
#X obj 370 -30 bng 15 250 50 0 empty empty empty 17 7 0 10 -262144
-1 -1;
#X obj 370 -15 t b b;
#X obj 370 21 pack f f;
#X floatatom 370 3 5 0 0 0 - - -, f 5;
#X obj 489 3 expr (1.0/$f1)*44100;
#X obj 489 -102 spigot;
#X obj 844 -127 change;
#X obj 742 -63 soundfiler;
#N canvas 0 22 450 300 (subpatch) 0;
#X array turbid-sample 174567 float 0;
#X coords 0 1 174566 -1 200 140 1 0 0;
#X restore 802 24 graph;
#X obj 742 -99 loadbang;
#X obj 844 -105 spigot;
#X obj 371 192 tabread4~ air-sample;
#X obj 726 220 tabread4~ turbid-sample;
#X msg 370 -80 read -resize froggy.wav air-sample;
#X obj 154 -14 * 10;
#X obj 489 -43 * 5;
#X obj 726 15 phasor~;
#X obj 726 -21 pack 0 1000;
#X obj 726 -3 line;
#X obj 844 -58 - 700;
#X obj 845 -39 / 500;
#X obj 665 237 *~;
#X obj 680 -136 pack 0 1000;
#X obj 680 -113 line;
#X obj 727 46 *~;
#X msg 742 -82 read -resize samples/manyfrogsRibit.wav turbid-sample
;
#X connect 1 0 52 0;
#X connect 2 0 8 0;
#X connect 3 0 2 0;
#X connect 3 0 33 0;
#X connect 4 0 2 0;
#X connect 4 0 5 0;
#X connect 4 0 30 0;
#X connect 6 0 4 0;
#X connect 6 0 3 0;
#X connect 6 0 7 0;
#X connect 7 0 2 0;
#X connect 8 0 1 0;
#X connect 8 1 15 0;
#X connect 8 2 56 0;
#X connect 8 3 22 0;
#X connect 8 4 68 0;
#X connect 8 5 29 0;
#X connect 9 0 11 0;
#X connect 10 0 11 0;
#X connect 11 0 52 1;
#X connect 12 0 14 0;
#X connect 13 0 14 0;
#X connect 14 0 52 1;
#X connect 15 0 9 0;
#X connect 15 1 10 0;
#X connect 15 2 12 0;
#X connect 15 3 13 0;
#X connect 16 0 18 0;
#X connect 17 0 18 0;
#X connect 18 0 67 1;
#X connect 19 0 21 0;
#X connect 20 0 21 0;
#X connect 21 0 67 1;
#X connect 22 0 16 0;
#X connect 22 1 17 0;
#X connect 22 2 19 0;
#X connect 22 3 20 0;
#X connect 23 0 25 0;
#X connect 24 0 25 0;
#X connect 25 0 72 1;
#X connect 25 0 84 0;
#X connect 26 0 28 0;
#X connect 27 0 28 0;
#X connect 28 0 72 1;
#X connect 28 0 84 0;
#X connect 29 0 23 0;
#X connect 29 1 24 0;
#X connect 29 2 26 0;
#X connect 29 3 27 0;
#X connect 30 0 31 0;
#X connect 30 0 32 0;
#X connect 31 0 30 1;
#X connect 33 0 30 0;
#X connect 34 0 36 0;
#X connect 35 0 36 0;
#X connect 37 0 0 0;
#X connect 37 0 36 0;
#X connect 38 0 0 1;
#X connect 38 0 36 1;
#X connect 39 0 47 0;
#X connect 41 0 50 0;
#X connect 42 0 51 0;
#X connect 43 0 42 0;
#X connect 44 0 45 0;
#X connect 45 0 47 0;
#X connect 45 1 43 0;
#X connect 46 0 42 0;
#X connect 47 0 46 0;
#X connect 48 0 53 0;
#X connect 49 0 46 1;
#X connect 50 0 39 0;
#X connect 51 0 37 0;
#X connect 51 0 38 0;
#X connect 52 0 48 0;
#X connect 52 0 44 0;
#X connect 53 0 76 0;
#X connect 54 0 49 0;
#X connect 55 0 54 0;
#X connect 56 0 67 0;
#X connect 57 0 65 0;
#X connect 59 0 75 0;
#X connect 60 0 73 0;
#X connect 61 0 60 0;
#X connect 62 0 63 0;
#X connect 63 0 65 0;
#X connect 63 1 61 0;
#X connect 64 0 60 0;
#X connect 65 0 64 0;
#X connect 66 0 64 1;
#X connect 67 0 62 0;
#X connect 67 0 77 0;
#X connect 68 0 72 0;
#X connect 69 0 86 1;
#X connect 71 0 87 0;
#X connect 72 0 81 0;
#X connect 73 0 37 0;
#X connect 73 0 38 0;
#X connect 74 0 83 0;
#X connect 75 0 57 0;
#X connect 76 0 55 0;
#X connect 77 0 66 0;
#X connect 78 0 86 0;
#X connect 79 0 80 0;
#X connect 80 0 78 0;
#X connect 81 0 82 0;
#X connect 82 0 79 0;
#X connect 83 0 37 0;
#X connect 83 0 38 0;
#X connect 84 0 85 0;
#X connect 85 0 83 1;
#X connect 86 0 74 0;
#X connect 87 0 69 0;
