#N canvas 114 154 1172 614 10;
#X obj 427 317 dac~;
#X obj 267 -222 textfile;
#X msg 266 -274 rewind, f 8;
#X obj 266 -256 metro 1000;
#X obj 266 -238 bng 15 250 50 0 empty empty empty 17 7 0 10 -262144
-1 -1;
#X obj 266 -310 loadbang;
#X obj 266 -205 unpack f s f s f s;
#X msg 43 -169 1;
#X msg 103 -169 0;
#X obj 73 -146 tgl 15 0 empty empty empty 17 7 0 10 -262144 -1 -1 0
1;
#X msg 164 -169 1;
#X msg 224 -169 0;
#X obj 200 -147 tgl 15 0 empty empty empty 17 7 0 10 -262144 -1 -1
0 1;
#X obj 43 -187 select rise-begin rise-end fall-begin fall-end none
;
#X msg 401 -169 1;
#X msg 461 -169 0;
#X obj 432 -151 tgl 15 0 empty empty empty 17 7 0 10 -262144 -1 -1
0 1;
#X msg 522 -169 1;
#X msg 582 -169 0;
#X obj 551 -151 tgl 15 0 empty empty empty 17 7 0 10 -262144 -1 -1
1 1;
#X obj 401 -187 select rise-begin rise-end fall-begin fall-end none
;
#X msg 733 -168 1;
#X msg 793 -169 0;
#X obj 764 -151 tgl 15 0 empty empty empty 17 7 0 10 -262144 -1 -1
0 1;
#X msg 824 -169 1;
#X msg 884 -169 0;
#X obj 860 -151 tgl 15 0 empty empty empty 17 7 0 10 -262144 -1 -1
0 1;
#X obj 733 -187 select rise-begin rise-end fall-begin fall-end none
;
#X obj 458 -238 f;
#X obj 480 -238 + 1;
#X obj 537 -220 print;
#X msg 458 -256 0;
#X msg 585 297 stop;
#X obj 485 314 writesf~ 2;
#X obj 426 266 +~;
#X obj 448 266 +~;
#X obj 726 -107 change;
#X obj 742 -48 soundfiler;
#N canvas 0 22 450 300 (subpatch) 0;
#X array turbid-sample 763430 float 0;
#X coords 0 1 763429 -1 200 140 1 0 0;
#X restore 841 -6 graph;
#X obj 742 -84 loadbang;
#X obj 726 220 tabread4~ turbid-sample;
#X obj 726 97 phasor~;
#X obj 726 61 pack 0 1000;
#X obj 726 79 line;
#X obj 665 237 *~;
#X obj 680 -113 line;
#X obj 727 128 *~;
#X msg 264 -292 read ../data/sensors.dat;
#X msg 742 -67 read -resize samples/ribit-edit.wav turbid-sample;
#X floatatom 726 18 5 0 0 0 - - -, f 5;
#X obj 726 -3 autonorm 700 900;
#X obj 402 -109 change;
#X obj 418 -51 soundfiler;
#N canvas 0 22 450 300 (subpatch) 0;
#X array air-sample 927113 float 0;
#X coords 0 1 927112 -1 200 140 1 0 0;
#X restore 517 -8 graph;
#X obj 418 -87 loadbang;
#X obj 402 117 phasor~;
#X obj 402 81 pack 0 1000;
#X obj 402 99 line;
#X obj 341 235 *~;
#X obj 356 -113 line;
#X obj 403 148 *~;
#X floatatom 402 16 5 0 0 0 - - -, f 5;
#X msg 418 -70 read -resize samples/DragonflyVO.wav air-sample;
#X obj 402 218 tabread4~ air-sample;
#X obj 402 -5 autonorm 0 100;
#X obj 72 -95 change;
#X obj 88 -38 soundfiler;
#N canvas 0 22 450 300 (subpatch) 0;
#X array temp-sample 51285 float 0;
#X coords 0 1 51284 -1 200 140 1 0 0;
#X restore 187 6 graph;
#X obj 88 -74 loadbang;
#X obj 72 133 phasor~;
#X obj 72 97 pack 0 1000;
#X obj 72 115 line;
#X obj 11 249 *~;
#X obj 26 -109 line;
#X obj 73 164 *~;
#X floatatom 72 30 5 0 0 0 - - -, f 5;
#X obj 72 189 tabread4~ temp-sample;
#X msg 88 -57 read -resize samples/DRUM.wav temp-sample;
#X obj 402 57 + 0.01;
#X obj 72 9 autonorm 10 15;
#X obj 72 72 + 0.5;
#X obj 72 214 *~ 0.1;
#X obj 726 37 / 5;
#X obj 402 35 / 6;
#X msg 482 275 open recording.wav \, start \;;
#X obj 72 49 / 1;
#X obj 26 -131 pack 0 5000;
#X obj 356 -136 pack 0 5000;
#X obj 680 -136 pack 0 5000;
#X connect 1 0 6 0;
#X connect 2 0 1 0;
#X connect 2 0 31 0;
#X connect 3 0 1 0;
#X connect 3 0 4 0;
#X connect 3 0 28 0;
#X connect 5 0 3 0;
#X connect 5 0 2 0;
#X connect 5 0 47 0;
#X connect 6 0 65 0;
#X connect 6 1 13 0;
#X connect 6 2 51 0;
#X connect 6 3 20 0;
#X connect 6 4 36 0;
#X connect 6 5 27 0;
#X connect 7 0 9 0;
#X connect 8 0 9 0;
#X connect 9 0 86 0;
#X connect 10 0 12 0;
#X connect 11 0 12 0;
#X connect 12 0 86 0;
#X connect 13 0 7 0;
#X connect 13 1 8 0;
#X connect 13 2 10 0;
#X connect 13 3 11 0;
#X connect 14 0 16 0;
#X connect 15 0 16 0;
#X connect 16 0 87 0;
#X connect 17 0 19 0;
#X connect 18 0 19 0;
#X connect 19 0 87 0;
#X connect 20 0 14 0;
#X connect 20 1 15 0;
#X connect 20 2 17 0;
#X connect 20 3 18 0;
#X connect 21 0 23 0;
#X connect 22 0 23 0;
#X connect 23 0 88 0;
#X connect 24 0 26 0;
#X connect 25 0 26 0;
#X connect 26 0 88 0;
#X connect 27 0 21 0;
#X connect 27 1 22 0;
#X connect 27 2 24 0;
#X connect 27 3 25 0;
#X connect 28 0 29 0;
#X connect 28 0 30 0;
#X connect 29 0 28 1;
#X connect 31 0 28 0;
#X connect 32 0 33 0;
#X connect 34 0 0 0;
#X connect 34 0 33 0;
#X connect 35 0 0 1;
#X connect 35 0 33 1;
#X connect 36 0 50 0;
#X connect 37 0 46 1;
#X connect 39 0 48 0;
#X connect 40 0 44 0;
#X connect 41 0 46 0;
#X connect 42 0 43 0;
#X connect 43 0 41 0;
#X connect 44 0 34 0;
#X connect 44 0 35 0;
#X connect 45 0 44 1;
#X connect 46 0 40 0;
#X connect 47 0 1 0;
#X connect 48 0 37 0;
#X connect 49 0 82 0;
#X connect 50 0 49 0;
#X connect 51 0 64 0;
#X connect 52 0 60 1;
#X connect 54 0 62 0;
#X connect 55 0 60 0;
#X connect 56 0 57 0;
#X connect 57 0 55 0;
#X connect 58 0 34 0;
#X connect 58 0 35 0;
#X connect 59 0 58 1;
#X connect 60 0 63 0;
#X connect 61 0 83 0;
#X connect 62 0 52 0;
#X connect 63 0 58 0;
#X connect 64 0 61 0;
#X connect 65 0 79 0;
#X connect 66 0 74 1;
#X connect 68 0 77 0;
#X connect 69 0 74 0;
#X connect 70 0 71 0;
#X connect 71 0 69 0;
#X connect 72 0 34 0;
#X connect 72 0 35 0;
#X connect 73 0 72 1;
#X connect 74 0 76 0;
#X connect 75 0 85 0;
#X connect 76 0 81 0;
#X connect 77 0 66 0;
#X connect 78 0 56 0;
#X connect 79 0 75 0;
#X connect 80 0 70 0;
#X connect 81 0 72 0;
#X connect 82 0 42 0;
#X connect 83 0 78 0;
#X connect 84 0 33 0;
#X connect 85 0 80 0;
#X connect 86 0 73 0;
#X connect 87 0 59 0;
#X connect 88 0 45 0;
