#N canvas 176 147 564 312 10;
#X msg 30 59 bang;
#X obj 29 167 soundfiler;
#N canvas 0 22 450 300 (subpatch) 0;
#X array array1 100 float 0;
#X coords 0 1 99 -1 200 140 1;
#X restore 298 51 graph;
#X obj 30 104 openpanel;
#X msg 29 139 read -resize \$1;
#X connect 0 0 3 0;
#X connect 3 0 4 0;
#X connect 4 0 1 0;
