#N canvas 0 87 1366 681 10;
#X obj 462 715 tabwrite~ out;
#X obj 460 672 bng 15 250 50 0 empty empty empty 17 7 0 10 -262144
-1 -1;
#X obj 461 691 metro 250;
#X obj 198 694 +~;
#X obj 197 793 dac~;
#X text 8 7 sonic kayak zone mixer;
#X msg 564 26 port 8888;
#X obj 563 46 udpreceive 8888;
#X obj 563 66 unpackOSC;
#X obj 561 87 route /entered-zone /left-zone;
#X msg 86 212 1;
#X msg 55 212 1;
#X msg 116 211 1;
#X msg 14 242 0;
#X msg 16 212 0;
#X msg 17 268 0;
#X obj 560 109 unpack s;
#X obj 663 110 unpack s;
#X obj 41 386 loadbang;
#X msg 41 410 1;
#X msg 99 425 0;
#X msg 42 66 \; pd dsp 1;
#X obj 41 35 loadbang;
#X obj 223 693 +~;
#X msg 233 257 1;
#X text 17 361 startup sound;
#X obj 50 238 zone-gps-sense;
#X obj 50 262 zone-tempwater-sine;
#X msg 265 256 1;
#X msg 295 255 1;
#N canvas 0 50 450 250 (subpatch) 0;
#X array out 100 float 3;
#A 0 0 0 0 0 0 0 0 0 0 0 0 0 0 0 0 0 0 0 0 0 0 0 0 0 0 0 0 0 0 0 0
0 0 0 0 0 0 0 0 0 0 0 0 0 0 0 0 0 0 0 0 0 0 0 0 0 0 0 0 0 0 0 0 0 0
0 0 0 0 0 0 0 0 0 0 0 0 0 0 0 0 0 0 0 0 0 0 0 0 0 0 0 0 0 0 0 0 0 0
0;
#X coords 0 1 99 -1 200 140 1;
#X restore 1703 14 graph;
#X text 13 190 continuously playing things;
#X text 559 5 input from swamp zone system;
#X msg 223 91 0;
#X msg 192 90 1;
#X obj 183 136 loop;
#X obj 215 116 loadbang;
#X obj 10 498 loop;
#X obj 42 478 loadbang;
#X msg 44 498 _ ../sound/kayaks.wav;
#X obj 99 403 delay 30000;
#X obj 32 173 bng 15 250 50 0 empty empty empty 17 7 0 10 -262144 -1
-1;
#X msg 328 256 1;
#X obj 193 752 *~;
#X obj 219 751 *~;
#X floatatom 127 771 5 0 0 0 - - -, f 5;
#X obj 127 699 loadbang;
#X msg 126 749 4;
#X msg 360 258 1;
#X msg 390 257 1;
#X obj 270 393 loadbang;
#X obj 270 414 loadbang;
#X obj 233 466 +~;
#X obj 259 466 +~;
#X obj 272 304 loadbang;
#X obj 270 325 loadbang;
#X obj 270 348 loadbang;
#X obj 271 373 loadbang;
#X obj 233 304 1shot;
#X obj 233 326 1shot;
#X obj 233 348 1shot;
#X obj 233 371 1shot;
#X obj 233 394 1shot;
#X obj 233 415 1shot;
#X msg 446 257 1;
#X msg 478 256 1;
#X msg 508 255 1;
#X msg 541 256 1;
#X obj 485 304 loadbang;
#X obj 483 325 loadbang;
#X obj 483 348 loadbang;
#X obj 482 375 loadbang;
#X obj 446 304 1shot;
#X obj 446 326 1shot;
#X obj 446 348 1shot;
#X obj 444 373 1shot;
#X obj 446 462 +~;
#X obj 473 463 +~;
#X msg 324 304 _ ../sound/z1.wav;
#X msg 325 325 _ ../sound/z2.wav;
#X msg 329 350 _ ../sound/z3.wav;
#X msg 326 373 _ ../sound/z4.wav;
#X msg 325 393 _ ../sound/z5.wav;
#X msg 325 414 _ ../sound/z6.wav;
#X msg 538 304 _ ../sound/z7.wav;
#X msg 538 325 _ ../sound/z8.wav;
#X msg 542 350 _ ../sound/z9.wav;
#X msg 537 375 _ ../sound/z10.wav;
#X msg 217 136 _ ../sound/start.wav;
#X msg 1102 255 1;
#X msg 1134 254 1;
#X msg 1164 253 1;
#X msg 1197 254 1;
#X msg 1229 256 1;
#X msg 1259 255 1;
#X obj 1139 391 loadbang;
#X obj 1139 412 loadbang;
#X obj 1102 464 +~;
#X obj 1128 464 +~;
#X obj 1141 302 loadbang;
#X obj 1139 323 loadbang;
#X obj 1139 346 loadbang;
#X obj 1140 371 loadbang;
#X msg 1315 255 1;
#X msg 1347 254 1;
#X msg 1377 253 1;
#X msg 1410 254 1;
#X obj 1354 302 loadbang;
#X obj 1352 323 loadbang;
#X obj 1352 346 loadbang;
#X obj 1351 373 loadbang;
#X obj 1315 460 +~;
#X obj 1342 461 +~;
#X msg 966 134 0;
#X msg 998 133 0;
#X msg 1028 132 0;
#X msg 1061 133 0;
#X msg 1096 136 0;
#X msg 1123 134 0;
#X msg 1182 132 0;
#X msg 1211 133 0;
#X msg 1241 132 0;
#X msg 1274 133 0;
#X msg 1193 302 _ ../sound/lz1.wav;
#X msg 1194 323 _ ../sound/lz2.wav;
#X msg 1198 348 _ ../sound/lz3.wav;
#X msg 1195 371 _ ../sound/lz4.wav;
#X msg 1194 390 _ ../sound/lz5.wav;
#X msg 1194 412 _ ../sound/lz6.wav;
#X msg 1407 302 _ ../sound/lz7.wav;
#X msg 1407 323 _ ../sound/lz8.wav;
#X msg 1411 348 _ ../sound/lz9.wav;
#X msg 1406 373 _ ../sound/lz10.wav;
#X obj 1102 302 loop;
#X obj 1102 324 loop;
#X obj 1102 346 loop;
#X obj 1102 369 loop;
#X obj 1102 392 loop;
#X obj 1102 413 loop;
#X obj 1315 302 loop;
#X obj 1315 324 loop;
#X obj 1315 346 loop;
#X obj 1313 371 loop;
#X obj 191 43 select start;
#X obj 193 68 select start;
#X obj 1126 176 select lz1 lz2 lz3 lz4 lz5 lz6 lz7 lz8 lz9 lz10, f
49;
#X obj 990 56 select lz1 lz2 lz3 lz4 lz5 lz6 lz7 lz8 lz9 lz10, f 49
;
#X obj 257 179 select z1 z2 z3 z4 z5 z6 z7 z8 z9 z10, f 90;
#X connect 1 0 2 0;
#X connect 2 0 0 0;
#X connect 3 0 43 0;
#X connect 6 0 7 0;
#X connect 7 0 8 0;
#X connect 8 0 9 0;
#X connect 9 0 16 0;
#X connect 9 1 17 0;
#X connect 10 0 27 0;
#X connect 11 0 26 0;
#X connect 13 0 27 0;
#X connect 14 0 26 0;
#X connect 16 0 41 0;
#X connect 16 0 143 0;
#X connect 16 0 147 0;
#X connect 16 0 145 0;
#X connect 17 0 144 0;
#X connect 17 0 146 0;
#X connect 18 0 19 0;
#X connect 18 0 40 0;
#X connect 19 0 37 0;
#X connect 20 0 37 0;
#X connect 22 0 21 0;
#X connect 22 0 12 0;
#X connect 22 0 10 0;
#X connect 22 0 11 0;
#X connect 23 0 0 0;
#X connect 23 0 44 0;
#X connect 24 0 58 0;
#X connect 26 0 3 0;
#X connect 26 1 23 0;
#X connect 28 0 59 0;
#X connect 29 0 60 0;
#X connect 33 0 35 0;
#X connect 34 0 35 0;
#X connect 35 0 3 0;
#X connect 35 1 23 0;
#X connect 36 0 88 0;
#X connect 37 0 3 0;
#X connect 37 1 23 0;
#X connect 38 0 39 0;
#X connect 39 0 37 1;
#X connect 40 0 20 0;
#X connect 41 0 14 0;
#X connect 42 0 61 0;
#X connect 43 0 4 0;
#X connect 44 0 4 1;
#X connect 45 0 43 1;
#X connect 45 0 44 1;
#X connect 46 0 47 0;
#X connect 47 0 45 0;
#X connect 48 0 62 0;
#X connect 49 0 63 0;
#X connect 50 0 82 0;
#X connect 51 0 83 0;
#X connect 52 0 3 0;
#X connect 53 0 23 0;
#X connect 54 0 78 0;
#X connect 55 0 79 0;
#X connect 56 0 80 0;
#X connect 57 0 81 0;
#X connect 58 0 52 0;
#X connect 58 1 53 0;
#X connect 59 0 52 0;
#X connect 59 1 53 0;
#X connect 60 0 52 0;
#X connect 60 1 53 0;
#X connect 61 0 52 0;
#X connect 61 1 53 0;
#X connect 62 0 52 0;
#X connect 62 1 53 0;
#X connect 63 0 52 0;
#X connect 63 1 53 0;
#X connect 64 0 72 0;
#X connect 65 0 73 0;
#X connect 66 0 74 0;
#X connect 67 0 75 0;
#X connect 68 0 84 0;
#X connect 69 0 85 0;
#X connect 70 0 86 0;
#X connect 71 0 87 0;
#X connect 72 0 76 0;
#X connect 72 1 77 0;
#X connect 73 0 76 0;
#X connect 73 1 77 0;
#X connect 74 0 76 0;
#X connect 74 1 77 0;
#X connect 75 0 76 0;
#X connect 75 1 77 0;
#X connect 76 0 3 0;
#X connect 77 0 23 0;
#X connect 78 0 58 1;
#X connect 79 0 59 1;
#X connect 80 0 60 1;
#X connect 81 0 61 1;
#X connect 82 0 62 1;
#X connect 83 0 63 1;
#X connect 84 0 72 1;
#X connect 85 0 73 1;
#X connect 86 0 74 1;
#X connect 87 0 75 1;
#X connect 88 0 35 1;
#X connect 89 0 133 0;
#X connect 90 0 134 0;
#X connect 91 0 135 0;
#X connect 92 0 136 0;
#X connect 93 0 137 0;
#X connect 94 0 138 0;
#X connect 95 0 127 0;
#X connect 96 0 128 0;
#X connect 97 0 3 0;
#X connect 98 0 23 0;
#X connect 99 0 123 0;
#X connect 100 0 124 0;
#X connect 101 0 125 0;
#X connect 102 0 126 0;
#X connect 103 0 139 0;
#X connect 104 0 140 0;
#X connect 105 0 141 0;
#X connect 106 0 142 0;
#X connect 107 0 129 0;
#X connect 108 0 130 0;
#X connect 109 0 131 0;
#X connect 110 0 132 0;
#X connect 111 0 3 0;
#X connect 112 0 23 0;
#X connect 113 0 133 0;
#X connect 114 0 134 0;
#X connect 115 0 135 0;
#X connect 116 0 136 0;
#X connect 117 0 137 0;
#X connect 118 0 138 0;
#X connect 119 0 139 0;
#X connect 120 0 140 0;
#X connect 121 0 141 0;
#X connect 122 0 142 0;
#X connect 123 0 133 1;
#X connect 124 0 134 1;
#X connect 125 0 135 1;
#X connect 126 0 136 1;
#X connect 127 0 137 1;
#X connect 128 0 138 1;
#X connect 129 0 139 1;
#X connect 130 0 140 1;
#X connect 131 0 141 1;
#X connect 132 0 142 1;
#X connect 133 0 97 0;
#X connect 133 1 98 0;
#X connect 134 0 97 0;
#X connect 134 1 98 0;
#X connect 135 0 97 0;
#X connect 135 1 98 0;
#X connect 136 0 97 0;
#X connect 136 1 98 0;
#X connect 137 0 97 0;
#X connect 137 1 98 0;
#X connect 138 0 97 0;
#X connect 138 1 98 0;
#X connect 139 0 111 0;
#X connect 139 1 112 0;
#X connect 140 0 111 0;
#X connect 140 1 112 0;
#X connect 141 0 111 0;
#X connect 141 1 112 0;
#X connect 142 0 111 0;
#X connect 142 1 112 0;
#X connect 143 0 34 0;
#X connect 144 0 33 0;
#X connect 145 0 89 0;
#X connect 145 1 90 0;
#X connect 145 2 91 0;
#X connect 145 3 92 0;
#X connect 145 4 93 0;
#X connect 145 5 94 0;
#X connect 145 6 103 0;
#X connect 145 7 104 0;
#X connect 145 8 105 0;
#X connect 145 9 106 0;
#X connect 146 0 113 0;
#X connect 146 1 114 0;
#X connect 146 2 115 0;
#X connect 146 3 116 0;
#X connect 146 4 117 0;
#X connect 146 5 118 0;
#X connect 146 6 119 0;
#X connect 146 7 120 0;
#X connect 146 8 121 0;
#X connect 146 9 122 0;
#X connect 147 0 24 0;
#X connect 147 1 28 0;
#X connect 147 2 29 0;
#X connect 147 3 42 0;
#X connect 147 4 48 0;
#X connect 147 5 49 0;
#X connect 147 6 64 0;
#X connect 147 7 65 0;
#X connect 147 8 66 0;
#X connect 147 9 67 0;
