#N canvas 285 232 1493 745 12;
#X obj 586 421 openpanel;
#X obj 203 326 bng 15 250 50 0 empty empty empty 17 7 0 10 -262144
-1 -1;
#X obj 583 569 soundfiler;
#X obj 903 150 phasor~;
#N canvas 0 50 450 250 (subpatch) 0;
#X array \$0_channelR 196608 float 2;
#X coords 0 1 196608 -1 110 30 1 0 0;
#X restore 429 294 graph;
#N canvas 0 50 450 250 (subpatch) 0;
#X array \$0_channelL 196608 float 2;
#X coords 0 1 196608 -1 110 30 1 0 0;
#X restore 429 249 graph;
#X obj 731 397 snapshot~;
#X obj 834 362 tgl 15 1 empty empty empty 17 7 0 10 -262144 -1 -1 1
1;
#X obj 731 418 /, f 2;
#X obj 432 329 hsl 105 15 0 1 0 0 empty empty empty -2 -8 0 10 -262144
-1 -1 0 1;
#X text 225 325 open file;
#X obj 902 216 +~;
#X obj 902 182 *~;
#X obj 919 98 expr (44100 / $f1);
#X obj 323 297 hsl 100 15 0 1 0 1 empty empty Length -2 -8 0 10 -262144
-1 -1 4574 1;
#X obj 918 63 *;
#X obj 324 237 hsl 100 15 0 1 0 0 empty empty Starting_point -2 -8
0 10 -262144 -1 -1 0 1;
#X obj 752 214 *;
#X obj 323 267 hsl 100 15 -10 10 0 0 empty empty Speed -2 -8 0 10 -262144
-1 -1 4798 1;
#X floatatom 848 97 8 0 0 0 - - -;
#X msg 817 47 1, f 2;
#X obj 903 124 *;
#X obj 954 39 expr $f2 - $f1;
#X obj 763 680 *~;
#X obj 646 233 vsl 20 110 0 4 0 0 empty empty vol 0 -9 0 10 -262144
-1 -1 9400 1;
#X obj 834 747 *~;
#X text 501 879 Output section;
#X obj 817 18 bng 15 250 50 0 empty empty empty 17 7 0 10 -262144 -1
-1;
#X obj 902 284 +~;
#X obj 1019 193 phasor~;
#X obj 957 248 samphold~;
#X obj 785 94 bng 15 250 50 0 empty empty empty 17 7 0 10 -262144 -1
-1;
#X obj 648 711 tgl 15 1 empty empty empty 17 7 0 10 -262144 -1 -1 1
1;
#N canvas 830 247 530 293 (subpatch) 0;
#X array \$0_t_waveoutR 200 float 5;
#A 0 0 0 0 0 0 0 0 0 0 0 0 0 0 0 0 0 0 0 0 0 0 0 0 0 0 0 0 0 0 0 0
0 0 0 0 0 0 0 0 0 0 0 0 0 0 0 0 0 0 0 0 0 0 0 0 0 0 0 0 0 0 0 0 0 0
0 0 0 0 0 0 0 0 0 0 0 0 0 0 0 0 0 0 0 0 0 0 0 0 0 0 0 0 0 0 0 0 0 0
0 0 0 0 0 0 0 0 0 0 0 0 0 0 0 0 0 0 0 0 0 0 0 0 0 0 0 0 0 0 0 0 0 0
0 0 0 0 0 0 0 0 0 0 0 0 0 0 0 0 0 0 0 0 0 0 0 0 0 0 0 0 0 0 0 0 0 0
0 0 0 0 0 0 0 0 0 0 0 0 0 0 0 0 0 0 0 0 0 0 0 0 0 0 0 0 0 0 0 0 0;
#X coords 0 1 199 -1 100 30 1 0 0;
#X restore 542 294 graph;
#X obj 203 248 vsl 15 64 0 10 0 1 empty empty res 0 -9 0 10 -262144
-1 -1 630 1;
#X obj 323 329 hsl 100 15 0 10000 0 0 empty empty Granular_phasor -2
-8 0 10 -262144 -1 -1 3483 1;
#X obj 1019 218 *~ 8;
#X obj 114 858 vcf~ 1;
#X obj 381 814 *~ 10000;
#X obj 187 858 vcf~ 1;
#N canvas 0 50 450 250 (subpatch) 0;
#X array \$0_t_waveoutL 200 float 5;
#A 0 0 0 0 0 0 0 0 0 0 0 0 0 0 0 0 0 0 0 0 0 0 0 0 0 0 0 0 0 0 0 0
0 0 0 0 0 0 0 0 0 0 0 0 0 0 0 0 0 0 0 0 0 0 0 0 0 0 0 0 0 0 0 0 0 0
0 0 0 0 0 0 0 0 0 0 0 0 0 0 0 0 0 0 0 0 0 0 0 0 0 0 0 0 0 0 0 0 0 0
0 0 0 0 0 0 0 0 0 0 0 0 0 0 0 0 0 0 0 0 0 0 0 0 0 0 0 0 0 0 0 0 0 0
0 0 0 0 0 0 0 0 0 0 0 0 0 0 0 0 0 0 0 0 0 0 0 0 0 0 0 0 0 0 0 0 0 0
0 0 0 0 0 0 0 0 0 0 0 0 0 0 0 0 0 0 0 0 0 0 0 0 0 0 0 0 0 0 0 0 0;
#X coords 0 1 199 -1 100 30 1 0 0;
#X restore 542 249 graph;
#X text 648 73 sampler section;
#X text 107 899 lo pass filter section;
#X obj 438 595 phasor~;
#X obj 435 637 snapshot~;
#X obj 360 532 tgl 15 1 empty empty empty 17 7 0 10 -262144 -1 -1 1
1;
#X obj 435 657 * 2;
#X obj 249 267 hsl 64 15 -10 10 0 0 empty empty Sawtooth_LFO -2 -8
0 10 -262144 -1 -1 3150 1;
#X obj 360 555 metro 50;
#X msg 459 499 0;
#X obj 247 558 osc~;
#X obj 248 300 hsl 64 15 -5 5 0 0 empty empty Sine_LFO -2 -8 0 10 -262144
-1 -1 3150 1;
#X obj 252 634 snapshot~;
#X obj 252 654 * 2;
#X msg 250 480 0;
#X obj 252 675 abs;
#X obj 252 697 change;
#X obj 435 680 change;
#X msg 120 403 0, f 2;
#X obj 223 248 vsl 15 64 0.0001 2 0 1 empty empty Cutoff 0 -9 0 10
-262144 -1 -1 3150 1;
#X obj 834 380 metro 50;
#X text 960 611 volume section;
#X obj 648 728 metro 50;
#X floatatom 139 343 5 0 0 0 - - -;
#X floatatom 398 355 5 0 0 0 - - -;
#X obj 178 151 inlet;
#X obj 953 13 r \$0_sampleStart;
#X obj 1103 13 r \$0_sampleSize;
#X obj 1100 81 s \$0_sampleLen;
#X obj 953 308 s~ \$0_waveout;
#X obj 932 345 s \$0_sampleStart;
#X obj 771 183 r \$0_sampleSize;
#X obj 545 151 inlet;
#X obj 621 151 inlet;
#X obj 377 912 outlet~;
#X obj 437 913 outlet~;
#X obj 824 806 s~ \$0_sR;
#X obj 756 756 s~ \$0_sL;
#X obj 387 151 inlet;
#X text 200 202 res;
#X obj 233 151 inlet;
#X text 246 202 cutoff;
#X text 614 202 gr_phsr;
#X text 448 202 start;
#X text 512 202 speed;
#X text 561 202 length;
#X obj 478 151 inlet;
#X text 316 202 sawLFO;
#X text 376 202 sineLFO;
#X obj 285 151 inlet;
#X obj 333 151 inlet;
#X obj 1007 158 r \$0_sampleLen;
#X obj 830 401 r \$0_sampleSize;
#X obj 760 598 r~ \$0_waveout;
#X obj 963 629 r \$0_mainvol;
#X obj 934 703 r~ \$0_waveout;
#X obj 934 726 tabread4~ \$0_channelR;
#X obj 760 628 tabread4~ \$0_channelL;
#X obj 566 646 r~ \$0_lfoL;
#X obj 606 679 r~ \$0_lfoR;
#X obj 348 867 r~ \$0_lfoL;
#X obj 429 865 r~ \$0_lfoR;
#X obj 115 880 s~ \$0_lfoL;
#X obj 188 880 s~ \$0_lfoR;
#X obj 209 787 r~ \$0_sR;
#X obj 282 788 r \$0_res;
#X obj 209 831 r~ \$0_cut;
#X obj 135 829 r~ \$0_cut;
#X obj 138 787 r \$0_res;
#X obj 73 787 r~ \$0_sL;
#X obj 119 437 s \$0_shutsine;
#X obj 91 460 s \$0_shutsaw;
#X obj 584 619 s \$0_sampleSize;
#X obj 250 502 s \$0_shutsine;
#X obj 458 557 r \$0_shutsaw;
#X obj 248 530 r \$0_shutsine;
#X obj 459 520 s \$0_shutsaw;
#X obj 214 737 s \$0_filter_cut;
#X obj 381 791 r \$0_filter_cut;
#X obj 74 343 s \$0_res;
#X obj 380 836 s~ \$0_cut;
#X obj 732 376 r~ \$0_waveout;
#X obj 566 776 tabwrite~ \$0_t_waveoutR;
#X obj 603 816 tabwrite~ \$0_t_waveoutL;
#X obj 619 471 f \$0;
#X obj 619 495 makefilename %d_channelL;
#X obj 586 446 t a b b;
#X msg 584 544 read -resize \$1 \$2 \$3;
#X obj 796 468 f \$0;
#X obj 585 520 pack s s s;
#X obj 796 495 makefilename %d_channelR;
#X obj 637 357 s \$0_mainvol;
#X obj 552 593 t b f;
#X connect 0 0 126 0;
#X connect 1 0 0 0;
#X connect 2 0 132 0;
#X connect 3 0 12 0;
#X connect 6 0 8 0;
#X connect 7 0 60 0;
#X connect 8 0 9 0;
#X connect 11 0 28 0;
#X connect 11 0 30 0;
#X connect 12 0 11 1;
#X connect 13 0 21 1;
#X connect 14 0 15 0;
#X connect 14 0 31 0;
#X connect 15 0 13 0;
#X connect 15 0 68 0;
#X connect 16 0 17 0;
#X connect 17 0 11 0;
#X connect 17 0 70 0;
#X connect 18 0 19 0;
#X connect 19 0 21 0;
#X connect 20 0 19 0;
#X connect 20 0 18 0;
#X connect 20 0 21 0;
#X connect 21 0 3 0;
#X connect 22 0 15 1;
#X connect 23 0 77 0;
#X connect 24 0 131 0;
#X connect 25 0 76 0;
#X connect 27 0 20 0;
#X connect 28 0 69 0;
#X connect 29 0 36 0;
#X connect 30 0 28 1;
#X connect 31 0 18 0;
#X connect 32 0 62 0;
#X connect 34 0 63 0;
#X connect 34 0 119 0;
#X connect 35 0 29 0;
#X connect 35 0 64 0;
#X connect 36 0 30 1;
#X connect 37 0 102 0;
#X connect 38 0 120 0;
#X connect 39 0 103 0;
#X connect 43 0 44 0;
#X connect 44 0 46 0;
#X connect 45 0 48 0;
#X connect 46 0 57 0;
#X connect 47 0 43 0;
#X connect 47 0 54 0;
#X connect 48 0 44 0;
#X connect 48 0 52 0;
#X connect 49 0 116 0;
#X connect 50 0 52 0;
#X connect 51 0 50 0;
#X connect 51 0 49 0;
#X connect 52 0 53 0;
#X connect 53 0 55 0;
#X connect 54 0 113 0;
#X connect 55 0 56 0;
#X connect 56 0 117 0;
#X connect 57 0 117 0;
#X connect 58 0 110 0;
#X connect 58 0 111 0;
#X connect 59 0 58 0;
#X connect 59 0 117 0;
#X connect 60 0 6 0;
#X connect 62 0 122 0;
#X connect 62 0 123 0;
#X connect 65 0 34 0;
#X connect 66 0 22 0;
#X connect 67 0 22 1;
#X connect 71 0 17 1;
#X connect 72 0 14 0;
#X connect 73 0 35 0;
#X connect 78 0 16 0;
#X connect 80 0 59 0;
#X connect 86 0 18 0;
#X connect 89 0 47 0;
#X connect 90 0 51 0;
#X connect 91 0 12 1;
#X connect 92 0 8 1;
#X connect 93 0 97 0;
#X connect 94 0 23 1;
#X connect 94 0 25 0;
#X connect 95 0 96 0;
#X connect 96 0 25 1;
#X connect 97 0 23 0;
#X connect 98 0 122 0;
#X connect 99 0 123 0;
#X connect 100 0 74 0;
#X connect 101 0 75 0;
#X connect 104 0 39 0;
#X connect 105 0 39 2;
#X connect 106 0 39 1;
#X connect 107 0 37 1;
#X connect 108 0 37 2;
#X connect 109 0 37 0;
#X connect 114 0 43 0;
#X connect 115 0 50 0;
#X connect 118 0 38 0;
#X connect 121 0 6 0;
#X connect 124 0 125 0;
#X connect 125 0 129 1;
#X connect 126 0 129 0;
#X connect 126 1 124 0;
#X connect 126 2 128 0;
#X connect 127 0 2 0;
#X connect 128 0 130 0;
#X connect 129 0 127 0;
#X connect 130 0 129 2;
#X connect 132 0 17 0;
#X connect 132 1 112 0;
#X coords 0 -1 1 1 470 150 2 200 200;
