#N canvas 414 132 939 771 12;
#X obj 152 333 hip~ 5;
#X obj 152 357 clip~ -1 1;
#X msg 18 194 \$1 50;
#X obj 18 216 line~;
#X obj 152 263 *~;
#X msg 62 195 \$1 50;
#X obj 62 246 line~;
#X obj 152 233 *~;
#X obj 152 205 *~;
#X obj 232 333 hip~ 5;
#X obj 232 357 clip~ -1 1;
#X obj 232 263 *~;
#X obj 232 233 *~;
#X obj 232 205 *~;
#X obj 338 411 outlet~ toRecL;
#X obj 336 328 outlet~ toRecR;
#X obj 99 135 swap 1;
#X obj 99 157 -;
#X obj 190 57 loadbang;
#X msg 190 79 1;
#X obj 152 294 *~ 5;
#X obj 232 294 *~ 5;
#X obj 10 10 cnv 15 50 130 empty empty jags 12 12 0 14 -228856 -66577
0;
#X obj 36 117 tgl 20 0 empty empty MUTE 0 -7 0 10 -258113 -1 -1 1 1
;
#X obj 13 34 vsl 20 100 0 1 0 0 empty empty Vol 23 10 0 10 -257985
-1 -1 0 1;
#X obj 170 146 catch~ L;
#X obj 251 148 catch~ R;
#X obj 81 414 outlet~ L;
#X obj 158 414 outlet~ R;
#X connect 0 0 1 0;
#X connect 1 0 27 0;
#X connect 2 0 3 0;
#X connect 3 0 7 0;
#X connect 3 0 12 0;
#X connect 4 0 20 0;
#X connect 5 0 6 0;
#X connect 6 0 4 0;
#X connect 6 0 11 0;
#X connect 7 0 4 1;
#X connect 9 0 10 0;
#X connect 10 0 28 0;
#X connect 11 0 21 0;
#X connect 12 0 11 1;
#X connect 16 0 17 0;
#X connect 16 1 17 1;
#X connect 17 0 5 0;
#X connect 18 0 19 0;
#X connect 19 0 23 0;
#X connect 20 0 0 0;
#X connect 21 0 9 0;
#X connect 23 0 16 0;
#X connect 24 0 2 0;
#X connect 25 0 14 0;
#X connect 25 0 7 1;
#X connect 26 0 15 0;
#X connect 26 0 12 1;
#X coords 0 -1 1 1 50 130 2 10 10;
