#N canvas 0 23 1920 1035 10;
#X obj 134 48 metro 1500;
#X obj 17 65 f;
#X obj 51 65 + 1;
#X msg 343 48 0;
#X obj 215 15 inlet grain_distance;
#X obj 134 15 inlet on_off;
#X obj 343 15 loadbang;
#X obj 17 15 inlet single-grain;
#X obj 82 36 bng 15 250 50 0 empty empty empty 17 7 0 10 -262144 -1
-1;
#X obj 74 133 moses 16;
#X obj 273 150 - 16;
#X obj 74 184 moses 8;
#X obj 174 201 - 8;
#X obj 273 184 moses 8;
#X obj 373 201 - 8;
#X obj 85 208 bng 15 250 50 0 empty empty empty 17 7 0 10 -262144 -1
-1;
#X obj 124 208 bng 15 250 50 0 empty empty empty 17 7 0 10 -262144
-1 -1;
#X obj 283 207 bng 15 250 50 0 empty empty empty 17 7 0 10 -262144
-1 -1;
#X obj 322 207 bng 15 250 50 0 empty empty empty 17 7 0 10 -262144
-1 -1;
#X obj 74 242 route 0 1 2 3 4 5 6 7;
#X obj 223 287 single-grain_V2, f 209;
#X obj 252 255 t f f, f 17;
#X obj 454 255 r \$0_myduration;
#X obj 553 255 r \$0_grainduration;
#X obj 668 255 r \$0_grainpitch;
#X obj 774 255 r \$0_mypitch;
#X obj 863 255 r \$0_grainstart;
#X obj 970 255 r \$0_mystart;
#X obj 1059 255 r \$0_grainvolume;
#X obj 1174 255 r \$0_myvolume;
#X obj 1274 255 r \$0_mypan;
#X obj 1346 255 r \$0_grainpan;
#X obj 568 13 inlet \$0_myduration;
#X obj 694 14 inlet \$0_grainduration;
#X obj 822 32 inlet \$0_grainpitch;
#X obj 934 14 inlet \$0_mypitch;
#X obj 1021 28 inlet \$0_grainstart;
#X obj 1145 18 inlet \$0_mystart;
#X obj 1246 27 inlet \$0_grainvolume;
#X obj 1371 13 inlet \$0_myvolume;
#X obj 1467 30 inlet \$0_mypan;
#X obj 1543 17 inlet \$0_grainpan;
#X obj 562 97 s \$0_myduration;
#X obj 660 98 s \$0_grainduration;
#X obj 776 97 s \$0_grainpitch;
#X obj 882 97 s \$0_mypitch;
#X obj 971 97 s \$0_grainstart;
#X obj 1078 97 s \$0_mystart;
#X obj 1167 97 s \$0_grainvolume;
#X obj 1282 97 s \$0_myvolume;
#X obj 1382 97 s \$0_mypan;
#X obj 1454 97 s \$0_grainpan;
#X obj 226 354 single-grain_V2, f 209;
#X obj 255 322 t f f, f 17;
#X obj 457 322 r \$0_myduration;
#X obj 556 322 r \$0_grainduration;
#X obj 671 322 r \$0_grainpitch;
#X obj 777 322 r \$0_mypitch;
#X obj 866 322 r \$0_grainstart;
#X obj 973 322 r \$0_mystart;
#X obj 1062 322 r \$0_grainvolume;
#X obj 1177 322 r \$0_myvolume;
#X obj 1277 322 r \$0_mypan;
#X obj 1349 322 r \$0_grainpan;
#X obj 232 418 single-grain_V2, f 209;
#X obj 261 386 t f f, f 17;
#X obj 463 386 r \$0_myduration;
#X obj 562 386 r \$0_grainduration;
#X obj 677 386 r \$0_grainpitch;
#X obj 783 386 r \$0_mypitch;
#X obj 872 386 r \$0_grainstart;
#X obj 979 386 r \$0_mystart;
#X obj 1068 386 r \$0_grainvolume;
#X obj 1183 386 r \$0_myvolume;
#X obj 1283 386 r \$0_mypan;
#X obj 1355 386 r \$0_grainpan;
#X obj 237 487 single-grain_V2, f 209;
#X obj 266 455 t f f, f 17;
#X obj 468 455 r \$0_myduration;
#X obj 567 455 r \$0_grainduration;
#X obj 682 455 r \$0_grainpitch;
#X obj 788 455 r \$0_mypitch;
#X obj 877 455 r \$0_grainstart;
#X obj 984 455 r \$0_mystart;
#X obj 1073 455 r \$0_grainvolume;
#X obj 1188 455 r \$0_myvolume;
#X obj 1288 455 r \$0_mypan;
#X obj 1360 455 r \$0_grainpan;
#X obj 238 559 single-grain_V2, f 209;
#X obj 267 527 t f f, f 17;
#X obj 469 527 r \$0_myduration;
#X obj 568 527 r \$0_grainduration;
#X obj 683 527 r \$0_grainpitch;
#X obj 789 527 r \$0_mypitch;
#X obj 878 527 r \$0_grainstart;
#X obj 985 527 r \$0_mystart;
#X obj 1074 527 r \$0_grainvolume;
#X obj 1189 527 r \$0_myvolume;
#X obj 1289 527 r \$0_mypan;
#X obj 1361 527 r \$0_grainpan;
#X obj 233 629 single-grain_V2, f 209;
#X obj 262 597 t f f, f 17;
#X obj 464 597 r \$0_myduration;
#X obj 563 597 r \$0_grainduration;
#X obj 678 597 r \$0_grainpitch;
#X obj 784 597 r \$0_mypitch;
#X obj 873 597 r \$0_grainstart;
#X obj 980 597 r \$0_mystart;
#X obj 1069 597 r \$0_grainvolume;
#X obj 1184 597 r \$0_myvolume;
#X obj 1284 597 r \$0_mypan;
#X obj 1356 597 r \$0_grainpan;
#X obj 237 704 single-grain_V2, f 209;
#X obj 266 672 t f f, f 17;
#X obj 468 672 r \$0_myduration;
#X obj 567 672 r \$0_grainduration;
#X obj 682 672 r \$0_grainpitch;
#X obj 788 672 r \$0_mypitch;
#X obj 877 672 r \$0_grainstart;
#X obj 984 672 r \$0_mystart;
#X obj 1073 672 r \$0_grainvolume;
#X obj 1188 672 r \$0_myvolume;
#X obj 1288 672 r \$0_mypan;
#X obj 1360 672 r \$0_grainpan;
#X obj 240 779 single-grain_V2, f 209;
#X obj 269 747 t f f, f 17;
#X obj 471 747 r \$0_myduration;
#X obj 570 747 r \$0_grainduration;
#X obj 685 747 r \$0_grainpitch;
#X obj 791 747 r \$0_mypitch;
#X obj 880 747 r \$0_grainstart;
#X obj 987 747 r \$0_mystart;
#X obj 1076 747 r \$0_grainvolume;
#X obj 1191 747 r \$0_myvolume;
#X obj 1291 747 r \$0_mypan;
#X obj 1363 747 r \$0_grainpan;
#X obj 1523 250 route 0 1 2 3 4 5 6 7;
#X obj 1672 295 single-grain_V2, f 209;
#X obj 1701 263 t f f, f 17;
#X obj 1903 263 r \$0_myduration;
#X obj 2002 263 r \$0_grainduration;
#X obj 2117 263 r \$0_grainpitch;
#X obj 2223 263 r \$0_mypitch;
#X obj 2312 263 r \$0_grainstart;
#X obj 2419 263 r \$0_mystart;
#X obj 2508 263 r \$0_grainvolume;
#X obj 2623 263 r \$0_myvolume;
#X obj 2723 263 r \$0_mypan;
#X obj 2795 263 r \$0_grainpan;
#X obj 1675 362 single-grain_V2, f 209;
#X obj 1704 330 t f f, f 17;
#X obj 1906 330 r \$0_myduration;
#X obj 2005 330 r \$0_grainduration;
#X obj 2120 330 r \$0_grainpitch;
#X obj 2226 330 r \$0_mypitch;
#X obj 2315 330 r \$0_grainstart;
#X obj 2422 330 r \$0_mystart;
#X obj 2511 330 r \$0_grainvolume;
#X obj 2626 330 r \$0_myvolume;
#X obj 2726 330 r \$0_mypan;
#X obj 2798 330 r \$0_grainpan;
#X obj 1681 426 single-grain_V2, f 209;
#X obj 1710 394 t f f, f 17;
#X obj 1912 394 r \$0_myduration;
#X obj 2011 394 r \$0_grainduration;
#X obj 2126 394 r \$0_grainpitch;
#X obj 2232 394 r \$0_mypitch;
#X obj 2321 394 r \$0_grainstart;
#X obj 2428 394 r \$0_mystart;
#X obj 2517 394 r \$0_grainvolume;
#X obj 2632 394 r \$0_myvolume;
#X obj 2732 394 r \$0_mypan;
#X obj 2804 394 r \$0_grainpan;
#X obj 1686 495 single-grain_V2, f 209;
#X obj 1715 463 t f f, f 17;
#X obj 1917 463 r \$0_myduration;
#X obj 2016 463 r \$0_grainduration;
#X obj 2131 463 r \$0_grainpitch;
#X obj 2237 463 r \$0_mypitch;
#X obj 2326 463 r \$0_grainstart;
#X obj 2433 463 r \$0_mystart;
#X obj 2522 463 r \$0_grainvolume;
#X obj 2637 463 r \$0_myvolume;
#X obj 2737 463 r \$0_mypan;
#X obj 2809 463 r \$0_grainpan;
#X obj 1687 567 single-grain_V2, f 209;
#X obj 1716 535 t f f, f 17;
#X obj 1918 535 r \$0_myduration;
#X obj 2017 535 r \$0_grainduration;
#X obj 2132 535 r \$0_grainpitch;
#X obj 2238 535 r \$0_mypitch;
#X obj 2327 535 r \$0_grainstart;
#X obj 2434 535 r \$0_mystart;
#X obj 2523 535 r \$0_grainvolume;
#X obj 2638 535 r \$0_myvolume;
#X obj 2738 535 r \$0_mypan;
#X obj 2810 535 r \$0_grainpan;
#X obj 1682 637 single-grain_V2, f 209;
#X obj 1711 605 t f f, f 17;
#X obj 1913 605 r \$0_myduration;
#X obj 2012 605 r \$0_grainduration;
#X obj 2127 605 r \$0_grainpitch;
#X obj 2233 605 r \$0_mypitch;
#X obj 2322 605 r \$0_grainstart;
#X obj 2429 605 r \$0_mystart;
#X obj 2518 605 r \$0_grainvolume;
#X obj 2633 605 r \$0_myvolume;
#X obj 2733 605 r \$0_mypan;
#X obj 2805 605 r \$0_grainpan;
#X obj 1686 712 single-grain_V2, f 209;
#X obj 1715 680 t f f, f 17;
#X obj 1917 680 r \$0_myduration;
#X obj 2016 680 r \$0_grainduration;
#X obj 2131 680 r \$0_grainpitch;
#X obj 2237 680 r \$0_mypitch;
#X obj 2326 680 r \$0_grainstart;
#X obj 2433 680 r \$0_mystart;
#X obj 2522 680 r \$0_grainvolume;
#X obj 2637 680 r \$0_myvolume;
#X obj 2737 680 r \$0_mypan;
#X obj 2809 680 r \$0_grainpan;
#X obj 1689 787 single-grain_V2, f 209;
#X obj 1718 755 t f f, f 17;
#X obj 1920 755 r \$0_myduration;
#X obj 2019 755 r \$0_grainduration;
#X obj 2134 755 r \$0_grainpitch;
#X obj 2240 755 r \$0_mypitch;
#X obj 2329 755 r \$0_grainstart;
#X obj 2436 755 r \$0_mystart;
#X obj 2525 755 r \$0_grainvolume;
#X obj 2640 755 r \$0_myvolume;
#X obj 2740 755 r \$0_mypan;
#X obj 2812 755 r \$0_grainpan;
#X obj 66 872 route 0 1 2 3 4 5 6 7;
#X obj 215 917 single-grain_V2, f 209;
#X obj 244 885 t f f, f 17;
#X obj 446 885 r \$0_myduration;
#X obj 545 885 r \$0_grainduration;
#X obj 660 885 r \$0_grainpitch;
#X obj 766 885 r \$0_mypitch;
#X obj 855 885 r \$0_grainstart;
#X obj 962 885 r \$0_mystart;
#X obj 1051 885 r \$0_grainvolume;
#X obj 1166 885 r \$0_myvolume;
#X obj 1266 885 r \$0_mypan;
#X obj 1338 885 r \$0_grainpan;
#X obj 218 984 single-grain_V2, f 209;
#X obj 247 952 t f f, f 17;
#X obj 449 952 r \$0_myduration;
#X obj 548 952 r \$0_grainduration;
#X obj 663 952 r \$0_grainpitch;
#X obj 769 952 r \$0_mypitch;
#X obj 858 952 r \$0_grainstart;
#X obj 965 952 r \$0_mystart;
#X obj 1054 952 r \$0_grainvolume;
#X obj 1169 952 r \$0_myvolume;
#X obj 1269 952 r \$0_mypan;
#X obj 1341 952 r \$0_grainpan;
#X obj 224 1048 single-grain_V2, f 209;
#X obj 253 1016 t f f, f 17;
#X obj 455 1016 r \$0_myduration;
#X obj 554 1016 r \$0_grainduration;
#X obj 669 1016 r \$0_grainpitch;
#X obj 775 1016 r \$0_mypitch;
#X obj 864 1016 r \$0_grainstart;
#X obj 971 1016 r \$0_mystart;
#X obj 1060 1016 r \$0_grainvolume;
#X obj 1175 1016 r \$0_myvolume;
#X obj 1275 1016 r \$0_mypan;
#X obj 1347 1016 r \$0_grainpan;
#X obj 229 1117 single-grain_V2, f 209;
#X obj 258 1085 t f f, f 17;
#X obj 460 1085 r \$0_myduration;
#X obj 559 1085 r \$0_grainduration;
#X obj 674 1085 r \$0_grainpitch;
#X obj 780 1085 r \$0_mypitch;
#X obj 869 1085 r \$0_grainstart;
#X obj 976 1085 r \$0_mystart;
#X obj 1065 1085 r \$0_grainvolume;
#X obj 1180 1085 r \$0_myvolume;
#X obj 1280 1085 r \$0_mypan;
#X obj 1352 1085 r \$0_grainpan;
#X obj 230 1189 single-grain_V2, f 209;
#X obj 259 1157 t f f, f 17;
#X obj 461 1157 r \$0_myduration;
#X obj 560 1157 r \$0_grainduration;
#X obj 675 1157 r \$0_grainpitch;
#X obj 781 1157 r \$0_mypitch;
#X obj 870 1157 r \$0_grainstart;
#X obj 977 1157 r \$0_mystart;
#X obj 1066 1157 r \$0_grainvolume;
#X obj 1181 1157 r \$0_myvolume;
#X obj 1281 1157 r \$0_mypan;
#X obj 1353 1157 r \$0_grainpan;
#X obj 225 1259 single-grain_V2, f 209;
#X obj 254 1227 t f f, f 17;
#X obj 456 1227 r \$0_myduration;
#X obj 555 1227 r \$0_grainduration;
#X obj 670 1227 r \$0_grainpitch;
#X obj 776 1227 r \$0_mypitch;
#X obj 865 1227 r \$0_grainstart;
#X obj 972 1227 r \$0_mystart;
#X obj 1061 1227 r \$0_grainvolume;
#X obj 1176 1227 r \$0_myvolume;
#X obj 1276 1227 r \$0_mypan;
#X obj 1348 1227 r \$0_grainpan;
#X obj 229 1334 single-grain_V2, f 209;
#X obj 258 1302 t f f, f 17;
#X obj 460 1302 r \$0_myduration;
#X obj 559 1302 r \$0_grainduration;
#X obj 674 1302 r \$0_grainpitch;
#X obj 780 1302 r \$0_mypitch;
#X obj 869 1302 r \$0_grainstart;
#X obj 976 1302 r \$0_mystart;
#X obj 1065 1302 r \$0_grainvolume;
#X obj 1180 1302 r \$0_myvolume;
#X obj 1280 1302 r \$0_mypan;
#X obj 1352 1302 r \$0_grainpan;
#X obj 232 1409 single-grain_V2, f 209;
#X obj 261 1377 t f f, f 17;
#X obj 463 1377 r \$0_myduration;
#X obj 562 1377 r \$0_grainduration;
#X obj 677 1377 r \$0_grainpitch;
#X obj 783 1377 r \$0_mypitch;
#X obj 872 1377 r \$0_grainstart;
#X obj 979 1377 r \$0_mystart;
#X obj 1068 1377 r \$0_grainvolume;
#X obj 1183 1377 r \$0_myvolume;
#X obj 1283 1377 r \$0_mypan;
#X obj 1355 1377 r \$0_grainpan;
#X obj 1515 880 route 0 1 2 3 4 5 6 7;
#X obj 1664 925 single-grain_V2, f 209;
#X obj 1693 893 t f f, f 17;
#X obj 1895 893 r \$0_myduration;
#X obj 1994 893 r \$0_grainduration;
#X obj 2109 893 r \$0_grainpitch;
#X obj 2215 893 r \$0_mypitch;
#X obj 2304 893 r \$0_grainstart;
#X obj 2411 893 r \$0_mystart;
#X obj 2500 893 r \$0_grainvolume;
#X obj 2615 893 r \$0_myvolume;
#X obj 2715 893 r \$0_mypan;
#X obj 2787 893 r \$0_grainpan;
#X obj 1667 992 single-grain_V2, f 209;
#X obj 1696 960 t f f, f 17;
#X obj 1898 960 r \$0_myduration;
#X obj 1997 960 r \$0_grainduration;
#X obj 2112 960 r \$0_grainpitch;
#X obj 2218 960 r \$0_mypitch;
#X obj 2307 960 r \$0_grainstart;
#X obj 2414 960 r \$0_mystart;
#X obj 2503 960 r \$0_grainvolume;
#X obj 2618 960 r \$0_myvolume;
#X obj 2718 960 r \$0_mypan;
#X obj 2790 960 r \$0_grainpan;
#X obj 1673 1056 single-grain_V2, f 209;
#X obj 1702 1024 t f f, f 17;
#X obj 1904 1024 r \$0_myduration;
#X obj 2003 1024 r \$0_grainduration;
#X obj 2118 1024 r \$0_grainpitch;
#X obj 2224 1024 r \$0_mypitch;
#X obj 2313 1024 r \$0_grainstart;
#X obj 2420 1024 r \$0_mystart;
#X obj 2509 1024 r \$0_grainvolume;
#X obj 2624 1024 r \$0_myvolume;
#X obj 2724 1024 r \$0_mypan;
#X obj 2796 1024 r \$0_grainpan;
#X obj 1678 1125 single-grain_V2, f 209;
#X obj 1707 1093 t f f, f 17;
#X obj 1909 1093 r \$0_myduration;
#X obj 2008 1093 r \$0_grainduration;
#X obj 2123 1093 r \$0_grainpitch;
#X obj 2229 1093 r \$0_mypitch;
#X obj 2318 1093 r \$0_grainstart;
#X obj 2425 1093 r \$0_mystart;
#X obj 2514 1093 r \$0_grainvolume;
#X obj 2629 1093 r \$0_myvolume;
#X obj 2729 1093 r \$0_mypan;
#X obj 2801 1093 r \$0_grainpan;
#X obj 1679 1197 single-grain_V2, f 209;
#X obj 1708 1165 t f f, f 17;
#X obj 1910 1165 r \$0_myduration;
#X obj 2009 1165 r \$0_grainduration;
#X obj 2124 1165 r \$0_grainpitch;
#X obj 2230 1165 r \$0_mypitch;
#X obj 2319 1165 r \$0_grainstart;
#X obj 2426 1165 r \$0_mystart;
#X obj 2515 1165 r \$0_grainvolume;
#X obj 2630 1165 r \$0_myvolume;
#X obj 2730 1165 r \$0_mypan;
#X obj 2802 1165 r \$0_grainpan;
#X obj 1674 1267 single-grain_V2, f 209;
#X obj 1703 1235 t f f, f 17;
#X obj 1905 1235 r \$0_myduration;
#X obj 2004 1235 r \$0_grainduration;
#X obj 2119 1235 r \$0_grainpitch;
#X obj 2225 1235 r \$0_mypitch;
#X obj 2314 1235 r \$0_grainstart;
#X obj 2421 1235 r \$0_mystart;
#X obj 2510 1235 r \$0_grainvolume;
#X obj 2625 1235 r \$0_myvolume;
#X obj 2725 1235 r \$0_mypan;
#X obj 2797 1235 r \$0_grainpan;
#X obj 1678 1342 single-grain_V2, f 209;
#X obj 1707 1310 t f f, f 17;
#X obj 1909 1310 r \$0_myduration;
#X obj 2008 1310 r \$0_grainduration;
#X obj 2123 1310 r \$0_grainpitch;
#X obj 2229 1310 r \$0_mypitch;
#X obj 2318 1310 r \$0_grainstart;
#X obj 2425 1310 r \$0_mystart;
#X obj 2514 1310 r \$0_grainvolume;
#X obj 2629 1310 r \$0_myvolume;
#X obj 2729 1310 r \$0_mypan;
#X obj 2801 1310 r \$0_grainpan;
#X obj 1681 1417 single-grain_V2, f 209;
#X obj 1710 1385 t f f, f 17;
#X obj 1912 1385 r \$0_myduration;
#X obj 2011 1385 r \$0_grainduration;
#X obj 2126 1385 r \$0_grainpitch;
#X obj 2232 1385 r \$0_mypitch;
#X obj 2321 1385 r \$0_grainstart;
#X obj 2428 1385 r \$0_mystart;
#X obj 2517 1385 r \$0_grainvolume;
#X obj 2632 1385 r \$0_myvolume;
#X obj 2732 1385 r \$0_mypan;
#X obj 2804 1385 r \$0_grainpan;
#X obj 17 89 mod 32;
#X obj 235 862 t f;
#X obj 425 17 inlet patch_number;
#X obj 243 232 t f;
#X obj 1692 240 t f;
#X obj 1684 870 t f;
#X connect 0 0 1 0;
#X connect 1 0 2 0;
#X connect 1 0 427 0;
#X connect 2 0 1 1;
#X connect 3 0 1 1;
#X connect 4 0 0 1;
#X connect 5 0 0 0;
#X connect 6 0 3 0;
#X connect 7 0 1 0;
#X connect 8 0 1 0;
#X connect 9 0 11 0;
#X connect 9 1 10 0;
#X connect 10 0 13 0;
#X connect 11 0 15 0;
#X connect 11 0 19 0;
#X connect 11 1 12 0;
#X connect 11 1 16 0;
#X connect 12 0 136 0;
#X connect 13 0 17 0;
#X connect 13 0 233 0;
#X connect 13 1 14 0;
#X connect 13 1 18 0;
#X connect 14 0 330 0;
#X connect 19 0 20 0;
#X connect 19 1 52 0;
#X connect 19 2 64 0;
#X connect 19 3 76 0;
#X connect 19 4 88 0;
#X connect 19 5 100 0;
#X connect 19 6 112 0;
#X connect 19 7 124 0;
#X connect 21 0 20 1;
#X connect 21 1 20 2;
#X connect 22 0 20 3;
#X connect 23 0 20 4;
#X connect 24 0 20 5;
#X connect 25 0 20 6;
#X connect 26 0 20 7;
#X connect 27 0 20 8;
#X connect 28 0 20 9;
#X connect 29 0 20 10;
#X connect 30 0 20 11;
#X connect 31 0 20 12;
#X connect 32 0 42 0;
#X connect 33 0 43 0;
#X connect 34 0 44 0;
#X connect 35 0 45 0;
#X connect 36 0 46 0;
#X connect 37 0 47 0;
#X connect 38 0 48 0;
#X connect 39 0 49 0;
#X connect 40 0 50 0;
#X connect 41 0 51 0;
#X connect 53 0 52 1;
#X connect 53 1 52 2;
#X connect 54 0 52 3;
#X connect 55 0 52 4;
#X connect 56 0 52 5;
#X connect 57 0 52 6;
#X connect 58 0 52 7;
#X connect 59 0 52 8;
#X connect 60 0 52 9;
#X connect 61 0 52 10;
#X connect 62 0 52 11;
#X connect 63 0 52 12;
#X connect 65 0 64 1;
#X connect 65 1 64 2;
#X connect 66 0 64 3;
#X connect 67 0 64 4;
#X connect 68 0 64 5;
#X connect 69 0 64 6;
#X connect 70 0 64 7;
#X connect 71 0 64 8;
#X connect 72 0 64 9;
#X connect 73 0 64 10;
#X connect 74 0 64 11;
#X connect 75 0 64 12;
#X connect 77 0 76 1;
#X connect 77 1 76 2;
#X connect 78 0 76 3;
#X connect 79 0 76 4;
#X connect 80 0 76 5;
#X connect 81 0 76 6;
#X connect 82 0 76 7;
#X connect 83 0 76 8;
#X connect 84 0 76 9;
#X connect 85 0 76 10;
#X connect 86 0 76 11;
#X connect 87 0 76 12;
#X connect 89 0 88 1;
#X connect 89 1 88 2;
#X connect 90 0 88 3;
#X connect 91 0 88 4;
#X connect 92 0 88 5;
#X connect 93 0 88 6;
#X connect 94 0 88 7;
#X connect 95 0 88 8;
#X connect 96 0 88 9;
#X connect 97 0 88 10;
#X connect 98 0 88 11;
#X connect 99 0 88 12;
#X connect 101 0 100 1;
#X connect 101 1 100 2;
#X connect 102 0 100 3;
#X connect 103 0 100 4;
#X connect 104 0 100 5;
#X connect 105 0 100 6;
#X connect 106 0 100 7;
#X connect 107 0 100 8;
#X connect 108 0 100 9;
#X connect 109 0 100 10;
#X connect 110 0 100 11;
#X connect 111 0 100 12;
#X connect 113 0 112 1;
#X connect 113 1 112 2;
#X connect 114 0 112 3;
#X connect 115 0 112 4;
#X connect 116 0 112 5;
#X connect 117 0 112 6;
#X connect 118 0 112 7;
#X connect 119 0 112 8;
#X connect 120 0 112 9;
#X connect 121 0 112 10;
#X connect 122 0 112 11;
#X connect 123 0 112 12;
#X connect 125 0 124 1;
#X connect 125 1 124 2;
#X connect 126 0 124 3;
#X connect 127 0 124 4;
#X connect 128 0 124 5;
#X connect 129 0 124 6;
#X connect 130 0 124 7;
#X connect 131 0 124 8;
#X connect 132 0 124 9;
#X connect 133 0 124 10;
#X connect 134 0 124 11;
#X connect 135 0 124 12;
#X connect 136 0 137 0;
#X connect 136 1 149 0;
#X connect 136 2 161 0;
#X connect 136 3 173 0;
#X connect 136 4 185 0;
#X connect 136 5 197 0;
#X connect 136 6 209 0;
#X connect 136 7 221 0;
#X connect 138 0 137 1;
#X connect 138 1 137 2;
#X connect 139 0 137 3;
#X connect 140 0 137 4;
#X connect 141 0 137 5;
#X connect 142 0 137 6;
#X connect 143 0 137 7;
#X connect 144 0 137 8;
#X connect 145 0 137 9;
#X connect 146 0 137 10;
#X connect 147 0 137 11;
#X connect 148 0 137 12;
#X connect 150 0 149 1;
#X connect 150 1 149 2;
#X connect 151 0 149 3;
#X connect 152 0 149 4;
#X connect 153 0 149 5;
#X connect 154 0 149 6;
#X connect 155 0 149 7;
#X connect 156 0 149 8;
#X connect 157 0 149 9;
#X connect 158 0 149 10;
#X connect 159 0 149 11;
#X connect 160 0 149 12;
#X connect 162 0 161 1;
#X connect 162 1 161 2;
#X connect 163 0 161 3;
#X connect 164 0 161 4;
#X connect 165 0 161 5;
#X connect 166 0 161 6;
#X connect 167 0 161 7;
#X connect 168 0 161 8;
#X connect 169 0 161 9;
#X connect 170 0 161 10;
#X connect 171 0 161 11;
#X connect 172 0 161 12;
#X connect 174 0 173 1;
#X connect 174 1 173 2;
#X connect 175 0 173 3;
#X connect 176 0 173 4;
#X connect 177 0 173 5;
#X connect 178 0 173 6;
#X connect 179 0 173 7;
#X connect 180 0 173 8;
#X connect 181 0 173 9;
#X connect 182 0 173 10;
#X connect 183 0 173 11;
#X connect 184 0 173 12;
#X connect 186 0 185 1;
#X connect 186 1 185 2;
#X connect 187 0 185 3;
#X connect 188 0 185 4;
#X connect 189 0 185 5;
#X connect 190 0 185 6;
#X connect 191 0 185 7;
#X connect 192 0 185 8;
#X connect 193 0 185 9;
#X connect 194 0 185 10;
#X connect 195 0 185 11;
#X connect 196 0 185 12;
#X connect 198 0 197 1;
#X connect 198 1 197 2;
#X connect 199 0 197 3;
#X connect 200 0 197 4;
#X connect 201 0 197 5;
#X connect 202 0 197 6;
#X connect 203 0 197 7;
#X connect 204 0 197 8;
#X connect 205 0 197 9;
#X connect 206 0 197 10;
#X connect 207 0 197 11;
#X connect 208 0 197 12;
#X connect 210 0 209 1;
#X connect 210 1 209 2;
#X connect 211 0 209 3;
#X connect 212 0 209 4;
#X connect 213 0 209 5;
#X connect 214 0 209 6;
#X connect 215 0 209 7;
#X connect 216 0 209 8;
#X connect 217 0 209 9;
#X connect 218 0 209 10;
#X connect 219 0 209 11;
#X connect 220 0 209 12;
#X connect 222 0 221 1;
#X connect 222 1 221 2;
#X connect 223 0 221 3;
#X connect 224 0 221 4;
#X connect 225 0 221 5;
#X connect 226 0 221 6;
#X connect 227 0 221 7;
#X connect 228 0 221 8;
#X connect 229 0 221 9;
#X connect 230 0 221 10;
#X connect 231 0 221 11;
#X connect 232 0 221 12;
#X connect 233 0 234 0;
#X connect 233 1 246 0;
#X connect 233 2 258 0;
#X connect 233 3 270 0;
#X connect 233 4 282 0;
#X connect 233 5 294 0;
#X connect 233 6 306 0;
#X connect 233 7 318 0;
#X connect 235 0 234 1;
#X connect 235 1 234 2;
#X connect 236 0 234 3;
#X connect 237 0 234 4;
#X connect 238 0 234 5;
#X connect 239 0 234 6;
#X connect 240 0 234 7;
#X connect 241 0 234 8;
#X connect 242 0 234 9;
#X connect 243 0 234 10;
#X connect 244 0 234 11;
#X connect 245 0 234 12;
#X connect 247 0 246 1;
#X connect 247 1 246 2;
#X connect 248 0 246 3;
#X connect 249 0 246 4;
#X connect 250 0 246 5;
#X connect 251 0 246 6;
#X connect 252 0 246 7;
#X connect 253 0 246 8;
#X connect 254 0 246 9;
#X connect 255 0 246 10;
#X connect 256 0 246 11;
#X connect 257 0 246 12;
#X connect 259 0 258 1;
#X connect 259 1 258 2;
#X connect 260 0 258 3;
#X connect 261 0 258 4;
#X connect 262 0 258 5;
#X connect 263 0 258 6;
#X connect 264 0 258 7;
#X connect 265 0 258 8;
#X connect 266 0 258 9;
#X connect 267 0 258 10;
#X connect 268 0 258 11;
#X connect 269 0 258 12;
#X connect 271 0 270 1;
#X connect 271 1 270 2;
#X connect 272 0 270 3;
#X connect 273 0 270 4;
#X connect 274 0 270 5;
#X connect 275 0 270 6;
#X connect 276 0 270 7;
#X connect 277 0 270 8;
#X connect 278 0 270 9;
#X connect 279 0 270 10;
#X connect 280 0 270 11;
#X connect 281 0 270 12;
#X connect 283 0 282 1;
#X connect 283 1 282 2;
#X connect 284 0 282 3;
#X connect 285 0 282 4;
#X connect 286 0 282 5;
#X connect 287 0 282 6;
#X connect 288 0 282 7;
#X connect 289 0 282 8;
#X connect 290 0 282 9;
#X connect 291 0 282 10;
#X connect 292 0 282 11;
#X connect 293 0 282 12;
#X connect 295 0 294 1;
#X connect 295 1 294 2;
#X connect 296 0 294 3;
#X connect 297 0 294 4;
#X connect 298 0 294 5;
#X connect 299 0 294 6;
#X connect 300 0 294 7;
#X connect 301 0 294 8;
#X connect 302 0 294 9;
#X connect 303 0 294 10;
#X connect 304 0 294 11;
#X connect 305 0 294 12;
#X connect 307 0 306 1;
#X connect 307 1 306 2;
#X connect 308 0 306 3;
#X connect 309 0 306 4;
#X connect 310 0 306 5;
#X connect 311 0 306 6;
#X connect 312 0 306 7;
#X connect 313 0 306 8;
#X connect 314 0 306 9;
#X connect 315 0 306 10;
#X connect 316 0 306 11;
#X connect 317 0 306 12;
#X connect 319 0 318 1;
#X connect 319 1 318 2;
#X connect 320 0 318 3;
#X connect 321 0 318 4;
#X connect 322 0 318 5;
#X connect 323 0 318 6;
#X connect 324 0 318 7;
#X connect 325 0 318 8;
#X connect 326 0 318 9;
#X connect 327 0 318 10;
#X connect 328 0 318 11;
#X connect 329 0 318 12;
#X connect 330 0 331 0;
#X connect 330 1 343 0;
#X connect 330 2 355 0;
#X connect 330 3 367 0;
#X connect 330 4 379 0;
#X connect 330 5 391 0;
#X connect 330 6 403 0;
#X connect 330 7 415 0;
#X connect 332 0 331 1;
#X connect 332 1 331 2;
#X connect 333 0 331 3;
#X connect 334 0 331 4;
#X connect 335 0 331 5;
#X connect 336 0 331 6;
#X connect 337 0 331 7;
#X connect 338 0 331 8;
#X connect 339 0 331 9;
#X connect 340 0 331 10;
#X connect 341 0 331 11;
#X connect 342 0 331 12;
#X connect 344 0 343 1;
#X connect 344 1 343 2;
#X connect 345 0 343 3;
#X connect 346 0 343 4;
#X connect 347 0 343 5;
#X connect 348 0 343 6;
#X connect 349 0 343 7;
#X connect 350 0 343 8;
#X connect 351 0 343 9;
#X connect 352 0 343 10;
#X connect 353 0 343 11;
#X connect 354 0 343 12;
#X connect 356 0 355 1;
#X connect 356 1 355 2;
#X connect 357 0 355 3;
#X connect 358 0 355 4;
#X connect 359 0 355 5;
#X connect 360 0 355 6;
#X connect 361 0 355 7;
#X connect 362 0 355 8;
#X connect 363 0 355 9;
#X connect 364 0 355 10;
#X connect 365 0 355 11;
#X connect 366 0 355 12;
#X connect 368 0 367 1;
#X connect 368 1 367 2;
#X connect 369 0 367 3;
#X connect 370 0 367 4;
#X connect 371 0 367 5;
#X connect 372 0 367 6;
#X connect 373 0 367 7;
#X connect 374 0 367 8;
#X connect 375 0 367 9;
#X connect 376 0 367 10;
#X connect 377 0 367 11;
#X connect 378 0 367 12;
#X connect 380 0 379 1;
#X connect 380 1 379 2;
#X connect 381 0 379 3;
#X connect 382 0 379 4;
#X connect 383 0 379 5;
#X connect 384 0 379 6;
#X connect 385 0 379 7;
#X connect 386 0 379 8;
#X connect 387 0 379 9;
#X connect 388 0 379 10;
#X connect 389 0 379 11;
#X connect 390 0 379 12;
#X connect 392 0 391 1;
#X connect 392 1 391 2;
#X connect 393 0 391 3;
#X connect 394 0 391 4;
#X connect 395 0 391 5;
#X connect 396 0 391 6;
#X connect 397 0 391 7;
#X connect 398 0 391 8;
#X connect 399 0 391 9;
#X connect 400 0 391 10;
#X connect 401 0 391 11;
#X connect 402 0 391 12;
#X connect 404 0 403 1;
#X connect 404 1 403 2;
#X connect 405 0 403 3;
#X connect 406 0 403 4;
#X connect 407 0 403 5;
#X connect 408 0 403 6;
#X connect 409 0 403 7;
#X connect 410 0 403 8;
#X connect 411 0 403 9;
#X connect 412 0 403 10;
#X connect 413 0 403 11;
#X connect 414 0 403 12;
#X connect 416 0 415 1;
#X connect 416 1 415 2;
#X connect 417 0 415 3;
#X connect 418 0 415 4;
#X connect 419 0 415 5;
#X connect 420 0 415 6;
#X connect 421 0 415 7;
#X connect 422 0 415 8;
#X connect 423 0 415 9;
#X connect 424 0 415 10;
#X connect 425 0 415 11;
#X connect 426 0 415 12;
#X connect 427 0 9 0;
#X connect 428 0 235 0;
#X connect 428 0 247 0;
#X connect 428 0 259 0;
#X connect 428 0 271 0;
#X connect 428 0 283 0;
#X connect 428 0 295 0;
#X connect 428 0 307 0;
#X connect 428 0 319 0;
#X connect 429 0 430 0;
#X connect 429 0 428 0;
#X connect 429 0 431 0;
#X connect 429 0 432 0;
#X connect 430 0 21 0;
#X connect 430 0 53 0;
#X connect 430 0 65 0;
#X connect 430 0 77 0;
#X connect 430 0 89 0;
#X connect 430 0 101 0;
#X connect 430 0 113 0;
#X connect 430 0 125 0;
#X connect 431 0 138 0;
#X connect 431 0 150 0;
#X connect 431 0 162 0;
#X connect 431 0 174 0;
#X connect 431 0 186 0;
#X connect 431 0 198 0;
#X connect 431 0 210 0;
#X connect 431 0 222 0;
#X connect 432 0 332 0;
#X connect 432 0 344 0;
#X connect 432 0 356 0;
#X connect 432 0 368 0;
#X connect 432 0 380 0;
#X connect 432 0 392 0;
#X connect 432 0 404 0;
#X connect 432 0 416 0;
