#N canvas 520 54 1400 987 10;
#X obj 467 763 cnv 15 230 150 empty empty grain_pan 5 12 0 14 -261234
-66577 0;
#X obj 478 301 vline~;
#X msg 478 279 0 \, 1 \$1 0;
#X obj 411 318 *~ 2048;
#X obj 468 336 cnv 15 240 170 empty empty grain_pitch 5 12 0 14 -232576
-66577 0;
#X obj 478 481 *~;
#X obj 467 513 cnv 15 190 180 empty empty grain_start 5 12 0 14 -203904
-66577 0;
#X obj 316 676 +~;
#X text 586 585 samples;
#X obj 316 498 *~;
#X obj 316 471 /~ 1000;
#X obj 316 445 sig~;
#X obj 316 724 *~;
#X obj 316 905 *~;
#X obj 397 905 *~;
#X obj 316 867 *~ 0.5;
#X obj 316 262 f;
#X obj 493 454 sig~;
#X obj 481 659 sig~;
#X obj 476 811 clip~ 0 1;
#X obj 476 833 *~ 0.25;
#X obj 476 888 cos~;
#X obj 510 866 -~ 0.25;
#X obj 510 888 cos~;
#X obj 476 788 sig~;
#X obj 6 10 inlet trigger;
#X obj 69 63 s \$0-pan;
#X obj 37 105 s \$0-start;
#X obj 21 125 s \$0-pitch;
#X obj 6 145 s \$0-duration;
#X floatatom 621 458 5 0 0 0 - - -;
#X floatatom 621 437 5 0 0 0 - - -;
#X floatatom 616 637 5 0 0 0 - - -;
#X floatatom 616 616 5 0 0 0 - - -;
#X floatatom 620 892 5 0 0 0 - - -;
#X floatatom 620 871 5 0 0 0 - - -;
#X obj 481 544 r \$0-start;
#X obj 549 365 r \$0-pitch;
#X obj 561 792 r \$0-pan;
#X obj 561 814 t b b;
#X obj 588 842 myrandom;
#X obj 561 842 f;
#X obj 561 866 *;
#X obj 561 890 +;
#X obj 481 566 t b b;
#X obj 508 591 myrandom;
#X obj 564 616 * 48000;
#X obj 564 636 / 1000;
#X obj 481 591 f;
#X obj 481 614 *;
#X obj 481 636 +;
#X obj 549 387 t b b;
#X obj 576 411 myrandom;
#X obj 493 387 swap 2;
#X obj 493 409 pow;
#X obj 493 365 / 12;
#X obj 493 431 * 48000;
#X obj 549 412 f;
#X obj 549 434 *;
#X obj 549 456 +;
#X obj 299 86 cnv 15 220 170 empty empty grain_duration 5 12 0 14 -204800
-66577 0;
#X floatatom 415 231 5 0 0 0 - - -;
#X floatatom 415 210 5 0 0 0 - - -;
#X obj 316 111 r \$0-duration;
#X obj 316 133 t b b;
#X obj 343 158 myrandom;
#X obj 316 186 *;
#X obj 316 160 f;
#X obj 316 208 *;
#X obj 316 230 +;
#X obj 415 158 t f f;
#X obj 316 748 *~;
#X floatatom 348 231 5 0 0 1 (ms) - -;
#X obj 6 33 t b b b b b;
#X obj 53 84 s \$0-vol;
#X obj 668 583 cnv 15 240 142 empty empty grain_volume 5 12 0 14 -204786
-66577 0;
#X obj 686 609 r \$0-vol;
#X floatatom 758 704 5 0 0 0 - - -;
#X floatatom 758 683 5 0 0 0 - - -;
#X obj 686 633 t b b;
#X obj 713 657 myrandom;
#X obj 686 658 f;
#X obj 686 680 *;
#X obj 686 702 +;
#X obj 858 626 f;
#X obj 858 731 sig~;
#X obj 125 933 throw~ L;
#X obj 180 933 throw~ R;
#X obj 235 933 throw~ M;
#X obj 715 226 cnv 15 160 140 empty empty CPU_cost_reducer 20 12 0
14 -233017 -66577 0;
#X obj 766 274 delay;
#X obj 725 321 tgl 15 0 empty empty empty 17 7 0 10 -262144 -1 -1 0
1;
#X obj 725 247 t b f;
#X obj 725 341 switch~;
#X msg 725 296 1;
#X msg 766 296 0;
#X msg 83 612 set \$1;
#X msg 232 611 set \$1;
#X obj 130 11 inlet src1_name;
#X obj 231 12 inlet grain-env_name;
#X obj 316 700 tabread4~;
#X obj 411 707 tabread4~;
#X obj 362 12 inlet myduration;
#X obj 468 13 inlet grainduration;
#X obj 592 13 inlet grainpitch;
#X obj 698 9 inlet mypitch;
#X obj 787 10 inlet grainstart;
#X obj 894 9 inlet mystart;
#X obj 983 9 inlet grainvolume;
#X obj 1098 8 inlet myvolume;
#X obj 1193 6 inlet grainpan;
#X obj 1293 7 inlet mypan;
#X obj 82 589 makefilename %d_src1;
#X obj 232 588 makefilename %d_grain-env;
#X connect 1 0 3 0;
#X connect 1 0 5 0;
#X connect 2 0 1 0;
#X connect 3 0 101 0;
#X connect 5 0 9 1;
#X connect 7 0 100 0;
#X connect 9 0 7 0;
#X connect 10 0 9 0;
#X connect 11 0 10 0;
#X connect 12 0 71 0;
#X connect 13 0 86 0;
#X connect 14 0 87 0;
#X connect 15 0 13 0;
#X connect 15 0 14 0;
#X connect 16 0 2 0;
#X connect 16 0 11 0;
#X connect 17 0 5 1;
#X connect 18 0 7 1;
#X connect 19 0 20 0;
#X connect 20 0 21 0;
#X connect 20 0 22 0;
#X connect 21 0 13 1;
#X connect 22 0 23 0;
#X connect 23 0 14 1;
#X connect 24 0 19 0;
#X connect 25 0 73 0;
#X connect 36 0 44 0;
#X connect 37 0 51 0;
#X connect 38 0 39 0;
#X connect 39 0 41 0;
#X connect 39 1 40 0;
#X connect 40 0 42 1;
#X connect 41 0 42 0;
#X connect 42 0 43 0;
#X connect 43 0 24 0;
#X connect 44 0 48 0;
#X connect 44 1 45 0;
#X connect 45 0 49 1;
#X connect 46 0 47 0;
#X connect 47 0 48 1;
#X connect 48 0 49 0;
#X connect 49 0 50 0;
#X connect 50 0 18 0;
#X connect 51 0 57 0;
#X connect 51 1 52 0;
#X connect 52 0 58 1;
#X connect 53 0 54 0;
#X connect 53 1 54 1;
#X connect 54 0 56 0;
#X connect 55 0 53 0;
#X connect 56 0 17 0;
#X connect 57 0 58 0;
#X connect 58 0 59 0;
#X connect 59 0 55 0;
#X connect 63 0 64 0;
#X connect 64 0 67 0;
#X connect 64 1 65 0;
#X connect 65 0 66 1;
#X connect 66 0 68 0;
#X connect 67 0 66 0;
#X connect 68 0 69 0;
#X connect 69 0 16 0;
#X connect 69 0 72 0;
#X connect 69 0 92 0;
#X connect 70 0 68 1;
#X connect 70 1 69 1;
#X connect 71 0 15 0;
#X connect 71 0 88 0;
#X connect 73 0 29 0;
#X connect 73 1 28 0;
#X connect 73 2 27 0;
#X connect 73 3 74 0;
#X connect 73 4 26 0;
#X connect 76 0 79 0;
#X connect 76 0 84 0;
#X connect 79 0 81 0;
#X connect 79 1 80 0;
#X connect 80 0 82 1;
#X connect 81 0 82 0;
#X connect 82 0 83 0;
#X connect 84 0 85 0;
#X connect 85 0 71 1;
#X connect 90 0 95 0;
#X connect 91 0 93 0;
#X connect 92 0 94 0;
#X connect 92 0 90 0;
#X connect 92 1 90 1;
#X connect 94 0 91 0;
#X connect 95 0 91 0;
#X connect 96 0 100 0;
#X connect 97 0 101 0;
#X connect 98 0 112 0;
#X connect 99 0 113 0;
#X connect 100 0 12 0;
#X connect 101 0 12 1;
#X connect 102 0 67 1;
#X connect 102 0 61 0;
#X connect 103 0 70 0;
#X connect 103 0 62 0;
#X connect 104 0 59 1;
#X connect 104 0 31 0;
#X connect 105 0 57 1;
#X connect 105 0 30 0;
#X connect 106 0 50 1;
#X connect 106 0 33 0;
#X connect 107 0 46 0;
#X connect 107 0 32 0;
#X connect 108 0 83 1;
#X connect 108 0 78 0;
#X connect 108 0 84 1;
#X connect 109 0 81 1;
#X connect 109 0 77 0;
#X connect 110 0 43 1;
#X connect 110 0 35 0;
#X connect 111 0 41 1;
#X connect 111 0 34 0;
#X connect 112 0 96 0;
#X connect 113 0 97 0;
