#N canvas 0 23 1680 1005 12;
#X msg 156 101 1;
#X msg 240 104 0;
#X obj 172 152 tgl 20 0 empty empty empty 17 7 0 10 -262144 -1 -1 0
1;
#X msg 277 103 1;
#X msg 367 103 0;
#X obj 238 152 tgl 20 0 empty empty empty 17 7 0 10 -262144 -1 -1 1
1;
#X obj 187 222 pack 0 1000;
#X obj 187 273 line~;
#X obj 136 330 *~;
#X text 244 21 read state of the temperature;
#X obj 58 202 *~ 0.1;
#X text 152 131 <-rise->;
#X text 220 131 <-fall->;
#X obj 157 77 select rise-begin rise-end fall-begin fall-end;
#X obj 136 377 outlet~;
#X obj 57 38 inlet~;
#X obj 157 20 inlet state;
#X floatatom 298 154 5 0 0 0 - - -;
#X obj 421 110 loadbang;
#X msg 421 134 1000;
#X text 287 130 <-time->;
#X obj 385 373 outlet;
#X obj 383 289 line;
#X obj 376 126 inlet;
#X connect 0 0 2 0;
#X connect 1 0 2 0;
#X connect 2 0 6 0;
#X connect 3 0 5 0;
#X connect 4 0 5 0;
#X connect 5 0 6 0;
#X connect 6 0 7 0;
#X connect 6 0 22 0;
#X connect 7 0 8 1;
#X connect 8 0 14 0;
#X connect 10 0 8 0;
#X connect 13 0 0 0;
#X connect 13 1 1 0;
#X connect 13 2 3 0;
#X connect 13 3 4 0;
#X connect 15 0 10 0;
#X connect 16 0 13 0;
#X connect 17 0 6 1;
#X connect 18 0 19 0;
#X connect 19 0 17 0;
#X connect 22 0 21 0;
#X connect 23 0 17 0;
#X coords 0 -1 1 1 200 50 2 150 130;
