#N canvas 396 144 699 434 10;
#X obj 238 122 textfile;
#X msg 238 48 rewind, f 8;
#X obj 238 84 metro 1000;
#X obj 238 102 bng 15 250 50 0 empty empty empty 17 7 0 10 -262144
-1 -1;
#X obj 238 12 loadbang;
#X msg 238 30 read sensors.dat;
#X obj 238 149 unpack f s f s f s;
#X obj 406 273 print turbidity;
#X obj 87 297 print temp state;
#X obj 258 296 print pm2.5 state;
#X obj 405 296 print turbidity state;
#X obj 88 274 print temperature degrees;
#X obj 259 273 print pm2.5 mg per m3;
#X connect 0 0 6 0;
#X connect 1 0 0 0;
#X connect 2 0 0 0;
#X connect 2 0 3 0;
#X connect 4 0 2 0;
#X connect 4 0 1 0;
#X connect 4 0 5 0;
#X connect 5 0 0 0;
#X connect 6 0 11 0;
#X connect 6 1 8 0;
#X connect 6 2 12 0;
#X connect 6 3 9 0;
#X connect 6 4 7 0;
#X connect 6 5 10 0;
