#N canvas 197 120 1233 628 10;
#X obj 520 116 soundfiler;
#N canvas 0 22 450 300 (subpatch) 0;
#X array dong1 140515 float 0;
#X coords 0 1 140514 -1 200 140 1 0 0;
#X restore 714 176 graph;
#X obj 520 80 loadbang;
#X msg 520 98 read -resize Dong4A-1.wav dong1;
#X obj 404 517 dac~;
#X obj 344 245 phasor~;
#X floatatom 344 174 5 0 0 0 - - -, f 5;
#X obj 457 468 *~;
#X obj 715 367 vsl 15 128 0 1 0 0 empty empty empty 0 -9 0 10 -262144
-1 -1 6400 1;
#X obj 344 209 pack 0 1000;
#X obj 344 227 line;
#X obj 345 276 *~ 20000;
#X obj 536 369 tabread4~ dong1;
#X obj 329 370 print;
#X obj 536 231 line~;
#X obj 211 434 print;
#X obj 344 191 * 100;
#X msg 563 214 0;
#X obj 536 145 bng 15 250 50 0 empty empty empty 17 7 0 10 -262144
-1 -1;
#X obj 536 160 t b b;
#X obj 536 196 pack f f;
#X floatatom 597 169 5 0 0 0 - - -, f 5;
#X floatatom 536 178 5 0 0 0 - - -, f 5;
#X connect 0 0 22 0;
#X connect 2 0 3 0;
#X connect 3 0 0 0;
#X connect 5 0 11 0;
#X connect 6 0 16 0;
#X connect 7 0 4 1;
#X connect 7 0 4 0;
#X connect 8 0 7 1;
#X connect 9 0 10 0;
#X connect 10 0 5 0;
#X connect 12 0 7 0;
#X connect 14 0 12 0;
#X connect 16 0 9 0;
#X connect 17 0 14 0;
#X connect 18 0 19 0;
#X connect 19 0 22 0;
#X connect 19 1 17 0;
#X connect 20 0 14 0;
#X connect 21 0 20 1;
#X connect 22 0 20 0;
