#N canvas 0 87 1366 681 10;
#X obj 84 182 phasor~;
#X floatatom 30 255 5 0 0 0 - - -, f 5;
#X obj 84 110 unpack f;
#X obj 84 146 line;
#X obj 84 128 pack 0 1000;
#X obj 84 471 *~ 0.5;
#X obj 84 85 nbx 5 14 -1e+37 1e+37 0 0 empty empty empty 0 -8 0 10
-257985 -1 -1 7 256;
#X msg 30 237 57;
#X obj 84 200 hip~ 500;
#X floatatom 94 254 5 0 0 0 - - -, f 5;
#X msg 94 236 500;
#X obj 94 218 loadbang;
#X obj 84 110 unpack f;
#X obj 84 146 line;
#X obj 84 128 pack 0 1000;
#X obj 174 182 phasor~;
#X obj 174 110 unpack f;
#X obj 174 182 phasor~;
#X obj 174 146 line;
#X obj 174 128 pack 0 1000;
#X obj 174 200 hip~ 500;
#X floatatom 185 255 5 0 0 0 - - -, f 5;
#X obj 185 218 loadbang;
#X obj 175 272 vcf~;
#X obj 174 87 nbx 5 14 -1e+37 1e+37 0 0 empty empty empty 0 -8 0 10
-257985 -1 -1 10 256;
#X msg 185 236 1000;
#X obj 84 490 dac~;
#X obj 30 218 loadbang;
#X obj 177 321 vsl 15 128 0 127 0 0 empty empty empty 0 -9 0 10 -260097
-1 -1 9400 1;
#X obj 177 452 / 127;
#X obj 1031 112 line;
#X obj 1031 94 pack 0 1000;
#X obj 1016 196 osc~;
#X obj 898 178 line;
#X obj 898 161 pack 0 1000;
#X obj 1016 178 +~;
#X obj 1015 55 osc~ 90;
#X obj 1015 73 *~ 18;
#X obj 1016 232 *~ 1;
#X obj 898 196 * 10;
#X obj 1031 148 + 70;
#X obj 1031 130 * 900;
#X obj 1016 214 *~ 0.025;
#X text 81 -66 Particulate matter sensor;
#X text 25 202 resonance;
#X obj 84 163 *;
#X obj 84 163 * 2;
#X obj 174 164 * 2;
#X obj 85 272 vcf~;
#X obj 657 31 vsl 15 128 0 127 0 0 empty empty empty 0 -9 0 10 -257985
-1 -1 0 1;
#X obj 677 76 / 127;
#X obj 677 95 bng 15 250 50 0 empty empty empty 17 7 0 10 -262144 -1
-1;
#X obj 705 128 bng 15 250 50 0 empty empty empty 17 7 0 10 -262144
-1 -1;
#X obj 677 110 delay 1000;
#X msg 705 143 0;
#X msg 678 143 1;
#X text 654 9 Thermometer sensor (2 of these left and right panned)
;
#X text 1066 55 bit of a FM wobble;
#X text 1105 85 smooth for 1 sensor update per second;
#X text 1071 133 scale so it's 70-970 hz;
#X text 1074 205 sinewave;
#X text 894 116 smooth \, boost and clip to provide amplification value
;
#X obj 898 214 clip 0 1;
#X obj 1015 452 +~;
#X text 195 314 global volume;
#X text 675 25 temperature;
#X text 730 78 normalised temp (0-1);
#X text 729 144 change in temp (degrees);
#X text 82 -50 2.5 um (micron) concentration ug/m3;
#X obj 84 55 textfile;
#X msg 84 -15 rewind, f 8;
#X obj 84 21 metro 1000;
#X obj 84 39 bng 15 250 50 0 empty empty empty 17 7 0 10 -262144 -1
-1;
#X obj 84 3 loadbang;
#X msg 84 -33 read flushing_test_pm25.dat;
#X text 179 33 10 um (micron) concentration ug/m3;
#X obj 174 54 textfile;
#X msg 174 -15 read flushing_test_pm100.dat;
#X connect 0 0 8 0;
#X connect 1 0 23 2;
#X connect 1 0 48 2;
#X connect 2 0 4 0;
#X connect 3 0 46 0;
#X connect 4 0 3 0;
#X connect 5 0 26 0;
#X connect 5 0 26 1;
#X connect 6 0 2 0;
#X connect 7 0 1 0;
#X connect 8 0 48 0;
#X connect 9 0 48 1;
#X connect 10 0 9 0;
#X connect 11 0 10 0;
#X connect 13 0 45 0;
#X connect 14 0 13 0;
#X connect 15 0 20 0;
#X connect 16 0 19 0;
#X connect 18 0 47 0;
#X connect 19 0 18 0;
#X connect 20 0 23 0;
#X connect 21 0 23 1;
#X connect 22 0 25 0;
#X connect 23 0 5 0;
#X connect 24 0 16 0;
#X connect 25 0 21 0;
#X connect 27 0 7 0;
#X connect 28 0 29 0;
#X connect 29 0 5 1;
#X connect 30 0 41 0;
#X connect 31 0 30 0;
#X connect 32 0 42 0;
#X connect 33 0 39 0;
#X connect 34 0 33 0;
#X connect 35 0 32 0;
#X connect 36 0 37 0;
#X connect 37 0 35 0;
#X connect 38 0 63 0;
#X connect 39 0 62 0;
#X connect 40 0 35 1;
#X connect 41 0 40 0;
#X connect 42 0 38 0;
#X connect 46 0 0 0;
#X connect 47 0 15 0;
#X connect 48 0 5 0;
#X connect 49 0 50 0;
#X connect 50 0 31 0;
#X connect 50 0 51 0;
#X connect 51 0 53 0;
#X connect 51 0 55 0;
#X connect 52 0 54 0;
#X connect 53 0 52 0;
#X connect 54 0 34 0;
#X connect 55 0 34 0;
#X connect 62 0 38 1;
#X connect 63 0 5 0;
#X connect 69 0 6 0;
#X connect 70 0 69 0;
#X connect 70 0 76 0;
#X connect 71 0 69 0;
#X connect 71 0 72 0;
#X connect 72 0 76 0;
#X connect 73 0 71 0;
#X connect 74 0 69 0;
#X connect 76 0 24 0;
#X connect 77 0 76 0;
