#N canvas 0 87 1366 681 10;
#X obj 84 226 phasor~;
#X floatatom 30 299 5 0 0 0 - - -, f 5;
#X obj 84 154 unpack f;
#X obj 84 190 line;
#X obj 84 172 pack 0 1000;
#X obj 84 515 *~ 0.5;
#X obj 84 72 nbx 5 14 -1e+37 1e+37 0 0 empty empty empty 0 -8 0 10
-257985 -1 -1 930 256;
#X msg 30 281 57;
#X obj 84 244 hip~ 500;
#X floatatom 94 298 5 0 0 0 - - -, f 5;
#X msg 94 280 500;
#X obj 94 262 loadbang;
#X obj 84 154 unpack f;
#X obj 84 190 line;
#X obj 84 172 pack 0 1000;
#X obj 84 534 dac~;
#X obj 30 262 loadbang;
#X obj 177 366 vsl 15 128 0 127 0 0 empty empty empty 0 -9 0 10 -260097
-1 -1 12700 1;
#X obj 177 497 / 127;
#X text 25 246 resonance;
#X obj 84 207 *;
#X obj 84 207 * 2;
#X obj 85 316 vcf~;
#X text 195 359 global volume;
#X obj 84 51 textfile;
#X msg 84 -19 rewind, f 8;
#X obj 84 17 metro 1000;
#X obj 84 35 bng 15 250 50 0 empty empty empty 17 7 0 10 -262144 -1
-1;
#X obj 84 -1 loadbang;
#X msg 84 -37 read shallowswirl-turbid.dat;
#X obj 84 99 - 800;
#X text 81 -66 Turbidity;
#X text 154 70 0-1024 value from arduino's analogue - digital converter
;
#X text 154 83 low numbers = low light level hitting the sensor;
#X text 154 96 lower numbers = higher turbidity (in theory);
#X text 91 119 temporarily subtracting 800 as it doesn't go below this
(in this example);
#X connect 0 0 8 0;
#X connect 1 0 22 2;
#X connect 2 0 4 0;
#X connect 3 0 21 0;
#X connect 4 0 3 0;
#X connect 5 0 15 0;
#X connect 5 0 15 1;
#X connect 6 0 30 0;
#X connect 7 0 1 0;
#X connect 8 0 22 0;
#X connect 9 0 22 1;
#X connect 10 0 9 0;
#X connect 11 0 10 0;
#X connect 13 0 20 0;
#X connect 14 0 13 0;
#X connect 16 0 7 0;
#X connect 17 0 18 0;
#X connect 18 0 5 1;
#X connect 21 0 0 0;
#X connect 22 0 5 0;
#X connect 24 0 6 0;
#X connect 25 0 24 0;
#X connect 26 0 24 0;
#X connect 26 0 27 0;
#X connect 28 0 26 0;
#X connect 29 0 24 0;
#X connect 30 0 2 0;
