#N canvas 113 148 1097 580 10;
#X obj 84 59 textfile;
#X msg 84 -15 rewind, f 8;
#X obj 84 21 metro 1000;
#X obj 84 39 bng 15 250 50 0 empty empty empty 17 7 0 10 -262144 -1
-1;
#X obj 84 3 loadbang;
#X msg 84 -33 read flushing_test_pm25.dat;
#X obj 165 201 flite speech;
#N canvas 0 50 450 250 (subpatch) 0;
#X array speech 200268 float 2;
#X coords 0 1 200268 -1 200 140 1 0 0;
#X restore 101 226 graph;
#X msg 81 194 synth;
#X obj 83 374 tabplay~ speech;
#X obj 387 476 dac~;
#X obj 84 79 change;
#X obj 397 59 textfile;
#X msg 397 -11 rewind, f 8;
#X obj 397 25 metro 1000;
#X obj 397 43 bng 15 250 50 0 empty empty empty 17 7 0 10 -262144 -1
-1;
#X obj 397 7 loadbang;
#X obj 397 78 change;
#X msg 398 -29 read flushing_test_pm100.dat;
#N canvas 0 50 450 250 (subpatch) 0;
#X array speech_pm10 195428 float 2;
#X coords 0 1 195428 -1 200 140 1 0 0;
#X restore 399 233 graph;
#X msg 394 190 synth;
#X obj 383 380 tabplay~ speech_pm10;
#X obj 458 191 flite speech_pm10;
#X obj 750 63 textfile;
#X msg 749 -11 rewind, f 8;
#X obj 750 25 metro 1000;
#X obj 750 43 bng 15 250 50 0 empty empty empty 17 7 0 10 -262144 -1
-1;
#X obj 750 7 loadbang;
#X obj 751 108 change;
#N canvas 0 50 450 250 (subpatch) 0;
#X array speech_turbid 109628 float 2;
#X coords 0 1 109628 -1 200 140 1 0 0;
#X restore 765 228 graph;
#X msg 755 190 synth;
#X msg 750 -29 read shallowswirl-turbid.dat;
#X obj 749 375 tabplay~ speech_turbid;
#X obj 839 190 flite speech_turbid;
#X obj 750 87 expr floor(($f1/1024)*33)/10;
#X msg 757 162 text turbidity is now \$1 volts;
#X msg 82 159 text particulate matter 2 point 5 is now \$1 micrograms
per meter cubed;
#X obj 397 98 spigot;
#X obj 443 100 tgl 15 0 empty empty empty 17 7 0 10 -262144 -1 -1 0
1;
#X msg 472 78 1;
#X msg 443 79 0;
#X obj 83 102 spigot;
#X obj 130 103 tgl 15 0 empty empty empty 17 7 0 10 -262144 -1 -1 0
1;
#X msg 160 80 1;
#X msg 131 79 0;
#X obj 750 129 spigot;
#X obj 800 130 tgl 15 0 empty empty empty 17 7 0 10 -262144 -1 -1 0
1;
#X msg 800 109 0;
#X msg 381 158 text particulate matter 10 point 0 is now \$1 micrograms
per meter cubed;
#X obj 183 402 send unsolo;
#X obj 162 55 receive unsolo;
#X obj 161 31 receive solo;
#X obj 108 127 send solo;
#X obj 472 57 receive unsolo;
#X obj 471 33 receive solo;
#X obj 404 129 send solo;
#X msg 931 91 1;
#X obj 933 66 receive unsolo;
#X obj 932 42 receive solo;
#X obj 824 135 send solo;
#X obj 869 406 send unsolo;
#X obj 501 404 send unsolo;
#X obj 465 541 writesf~;
#X msg 570 529 stop;
#X msg 464 502 open vocal.wav \, start \;;
#X connect 0 0 11 0;
#X connect 1 0 0 0;
#X connect 2 0 0 0;
#X connect 2 0 3 0;
#X connect 4 0 2 0;
#X connect 5 0 0 0;
#X connect 8 0 6 0;
#X connect 9 0 10 0;
#X connect 9 0 10 1;
#X connect 9 0 62 0;
#X connect 9 1 49 0;
#X connect 11 0 41 0;
#X connect 12 0 17 0;
#X connect 13 0 12 0;
#X connect 14 0 12 0;
#X connect 14 0 15 0;
#X connect 16 0 14 0;
#X connect 17 0 37 0;
#X connect 18 0 12 0;
#X connect 20 0 22 0;
#X connect 21 0 10 1;
#X connect 21 0 10 0;
#X connect 21 0 62 0;
#X connect 21 1 61 0;
#X connect 23 0 34 0;
#X connect 24 0 23 0;
#X connect 25 0 23 0;
#X connect 25 0 26 0;
#X connect 27 0 25 0;
#X connect 28 0 45 0;
#X connect 30 0 33 0;
#X connect 31 0 23 0;
#X connect 32 0 10 1;
#X connect 32 0 10 0;
#X connect 32 0 62 0;
#X connect 32 1 60 0;
#X connect 34 0 28 0;
#X connect 35 0 30 0;
#X connect 35 0 33 0;
#X connect 36 0 8 0;
#X connect 36 0 6 0;
#X connect 37 0 48 0;
#X connect 37 0 21 0;
#X connect 37 0 55 0;
#X connect 38 0 37 1;
#X connect 39 0 38 0;
#X connect 40 0 38 0;
#X connect 41 0 36 0;
#X connect 41 0 9 0;
#X connect 41 0 52 0;
#X connect 42 0 41 1;
#X connect 43 0 42 0;
#X connect 44 0 42 0;
#X connect 45 0 35 0;
#X connect 45 0 32 0;
#X connect 45 0 59 0;
#X connect 46 0 45 1;
#X connect 47 0 46 0;
#X connect 48 0 20 0;
#X connect 48 0 22 0;
#X connect 50 0 43 0;
#X connect 51 0 44 0;
#X connect 53 0 39 0;
#X connect 54 0 40 0;
#X connect 56 0 46 0;
#X connect 57 0 56 0;
#X connect 58 0 47 0;
#X connect 63 0 62 0;
#X connect 64 0 62 0;
