#N canvas 742 183 450 473 10;
#X msg 127 24 read file.txt;
#X obj 139 137 textfile;
#X msg 176 55 rewind, f 8;
#X msg 179 82 bang;
#X obj 105 436 dac~;
#X msg 92 289 1;
#X msg 116 289 0;
#X obj 71 124 bng 15 250 50 0 empty empty empty 17 7 0 10 -262144 -1
-1;
#X obj 140 188 symbol;
#X obj 122 313 loop;
#X obj 232 174 + 1;
#X obj 232 197 print;
#X obj 231 146 f;
#X obj 218 121 bng 15 250 50 0 empty empty empty 17 7 0 10 -262144
-1 -1;
#X obj 143 289 spigot;
#X obj 154 313 print;
#X obj 175 271 == 1;
#X msg 287 129 0;
#X obj 117 215 t b s;
#X msg 211 288 1;
#X msg 235 288 0;
#X obj 241 312 loop;
#X obj 262 288 spigot;
#X obj 273 312 print;
#X msg 333 290 1;
#X msg 357 290 0;
#X obj 363 314 loop;
#X obj 384 290 spigot;
#X obj 395 314 print;
#X obj 294 270 == 2;
#X obj 416 272 == 3;
#X connect 0 0 1 0;
#X connect 1 0 8 0;
#X connect 2 0 1 0;
#X connect 2 0 17 0;
#X connect 3 0 1 0;
#X connect 5 0 9 0;
#X connect 6 0 9 0;
#X connect 8 0 18 0;
#X connect 9 0 4 0;
#X connect 9 0 4 1;
#X connect 10 0 11 0;
#X connect 10 0 12 1;
#X connect 10 0 16 0;
#X connect 10 0 29 0;
#X connect 10 0 30 0;
#X connect 12 0 10 0;
#X connect 13 0 12 0;
#X connect 14 0 9 1;
#X connect 14 0 15 0;
#X connect 16 0 14 1;
#X connect 17 0 12 1;
#X connect 18 0 13 0;
#X connect 18 1 14 0;
#X connect 18 1 22 0;
#X connect 18 1 27 0;
#X connect 19 0 21 0;
#X connect 20 0 21 0;
#X connect 21 0 4 0;
#X connect 22 0 21 1;
#X connect 22 0 23 0;
#X connect 24 0 26 0;
#X connect 25 0 26 0;
#X connect 26 0 4 0;
#X connect 27 0 26 1;
#X connect 27 0 28 0;
#X connect 29 0 22 1;
#X connect 30 0 27 1;
