#N canvas 229 313 450 300 10;
#X obj 230 74 f;
#X obj 157 113 -;
#X obj 134 80 t f f;
#X obj 92 35 inlet;
#X obj 158 244 outlet;
#X obj 157 138 abs;
#X obj 157 162 > \$1;
#X obj 157 190 == 1;
#X obj 157 214 bng 15 250 50 0 empty empty empty 17 7 0 10 -262144
-1 -1;
#X floatatom 233 133 5 0 0 0 - - -, f 5;
#X floatatom 228 191 5 0 0 0 - - -, f 5;
#X connect 0 0 1 1;
#X connect 1 0 5 0;
#X connect 1 0 9 0;
#X connect 2 1 1 0;
#X connect 3 0 2 0;
#X connect 5 0 6 0;
#X connect 6 0 7 0;
#X connect 6 0 10 0;
#X connect 7 0 8 0;
#X connect 8 0 4 0;
