#N canvas 0 87 1366 681 10;
#N canvas 0 50 450 250 (subpatch) 0;
#X array temp-speech 44508 float 2;
#X coords 0 1 44508 -1 200 140 1 0 0;
#X restore 164 227 graph;
#X obj 375 569 dac~;
#X obj 25 274 spigot;
#X obj 58 231 tgl 15 0 empty empty empty 17 7 0 10 -262144 -1 -1 0
1;
#X msg 134 213 1;
#X msg 58 213 0;
#X obj 154 379 send unsolo;
#X obj 134 195 receive unsolo;
#X obj 58 195 receive solo;
#X obj 25 352 send solo;
#X msg 637 529 stop;
#X obj 275 -27 textfile;
#X msg 275 -79 rewind, f 8;
#X obj 274 -61 metro 1000;
#X obj 274 -43 bng 15 250 50 0 empty empty empty 17 7 0 10 -262144
-1 -1;
#X obj 274 -115 loadbang;
#X obj 274 -10 unpack f s f s f s;
#X msg 26 26 1;
#X msg 86 26 0;
#X obj 57 44 tgl 15 0 empty empty empty 17 7 0 10 -262144 -1 -1 0 1
;
#X msg 147 26 1;
#X msg 207 26 0;
#X obj 183 44 tgl 15 0 empty empty empty 17 7 0 10 -262144 -1 -1 0
1;
#X obj 26 8 select rise-begin rise-end fall-begin fall-end none;
#X msg 417 26 1;
#X msg 477 26 0;
#X obj 448 44 tgl 15 0 empty empty empty 17 7 0 10 -262144 -1 -1 0
1;
#X msg 538 26 1;
#X msg 598 26 0;
#X obj 574 44 tgl 15 0 empty empty empty 17 7 0 10 -262144 -1 -1 1
1;
#X obj 417 8 select rise-begin rise-end fall-begin fall-end none;
#X obj 25 379 tabplay~ temp-speech;
#X obj 25 328 flite temp-speech;
#X obj 403 -11 print;
#X obj 466 -43 f;
#X obj 488 -43 + 1;
#X obj 466 -25 print;
#X msg 466 -61 0;
#X obj 25 103 spigot;
#X obj 152 106 spigot;
#X floatatom 164 -43 5 0 0 0 - - -, f 5;
#X obj 25 83 deltagt 0.5;
#N canvas 0 50 450 250 (subpatch) 0;
#X array pm-speech 73988 float 2;
#X coords 0 1 73988 -1 200 140 1 0 0;
#X restore 570 303 graph;
#X obj 416 263 spigot;
#X obj 450 238 tgl 15 0 empty empty empty 17 7 0 10 -262144 -1 -1 0
1;
#X msg 526 220 1;
#X msg 450 220 0;
#X obj 536 448 send unsolo;
#X obj 526 202 receive unsolo;
#X obj 450 202 receive solo;
#X obj 417 402 send solo;
#X obj 416 122 spigot;
#X obj 538 125 spigot;
#X obj 417 424 tabplay~ pm-speech;
#X obj 417 379 flite pm-speech;
#N canvas 0 50 450 250 (subpatch) 0;
#X array turbid-speech 42748 float 2;
#X coords 0 1 42748 -1 200 140 1 0 0;
#X restore 1139 248 graph;
#X obj 869 261 spigot;
#X obj 902 231 tgl 15 0 empty empty empty 17 7 0 10 -262144 -1 -1 0
1;
#X msg 978 213 1;
#X msg 902 213 0;
#X obj 998 383 send unsolo;
#X obj 978 195 receive unsolo;
#X obj 902 195 receive solo;
#X obj 869 321 send solo;
#X obj 870 90 spigot;
#X obj 997 93 spigot;
#X obj 869 287 flite turbid-speech;
#X obj 869 360 tabplay~ turbid-speech;
#X msg 870 26 1;
#X msg 930 26 0;
#X obj 901 44 tgl 15 0 empty empty empty 17 7 0 10 -262144 -1 -1 0
1;
#X msg 991 26 1;
#X msg 1051 26 0;
#X obj 1027 44 tgl 15 0 empty empty empty 17 7 0 10 -262144 -1 -1 1
1;
#X obj 870 8 select rise-begin rise-end fall-begin fall-end none;
#X obj 620 -78 loadbang;
#X obj 620 -55 send unsolo;
#X msg 416 155 text air pollution rising \, synth;
#X msg 416 173 text air pollution falling \, synth;
#X msg 25 140 text warmer \, synth;
#X msg 25 160 text colder \, synth;
#X msg 869 131 text murkier \, synth;
#X msg 869 149 text clear er \, synth;
#X obj 416 101 deltagt 16;
#X obj 870 68 deltagt 20;
#X obj 538 101 deltagt 8;
#X obj 997 72 deltagt 10;
#X obj 152 84 deltagt 0.1;
#X obj 24 552 *~ 0.7;
#X obj 76 552 *~ 0.3;
#X obj 927 550 *~ 0.7;
#X obj 870 550 *~ 0.3;
#X obj 518 569 writesf~ 2;
#X floatatom 528 -21 5 0 0 0 - - -, f 5;
#X msg 274 -97 read ../data/fake-sensors2.dat;
#X msg 530 502 open voice-first.wav \, start \;;
#X connect 2 0 32 0;
#X connect 3 0 2 1;
#X connect 4 0 3 0;
#X connect 5 0 3 0;
#X connect 7 0 4 0;
#X connect 8 0 5 0;
#X connect 10 0 92 0;
#X connect 11 0 16 0;
#X connect 11 0 33 0;
#X connect 12 0 11 0;
#X connect 12 0 37 0;
#X connect 13 0 11 0;
#X connect 13 0 14 0;
#X connect 13 0 34 0;
#X connect 15 0 13 0;
#X connect 15 0 12 0;
#X connect 15 0 94 0;
#X connect 16 0 40 0;
#X connect 16 0 41 0;
#X connect 16 0 87 0;
#X connect 16 1 23 0;
#X connect 16 2 83 0;
#X connect 16 2 85 0;
#X connect 16 3 30 0;
#X connect 16 4 84 0;
#X connect 16 4 86 0;
#X connect 16 5 74 0;
#X connect 17 0 19 0;
#X connect 18 0 19 0;
#X connect 19 0 38 1;
#X connect 20 0 22 0;
#X connect 21 0 22 0;
#X connect 22 0 39 1;
#X connect 23 0 17 0;
#X connect 23 1 18 0;
#X connect 23 2 20 0;
#X connect 23 3 21 0;
#X connect 24 0 26 0;
#X connect 25 0 26 0;
#X connect 26 0 51 1;
#X connect 27 0 29 0;
#X connect 28 0 29 0;
#X connect 29 0 52 1;
#X connect 30 0 24 0;
#X connect 30 1 25 0;
#X connect 30 2 27 0;
#X connect 30 3 28 0;
#X connect 31 0 88 0;
#X connect 31 0 89 0;
#X connect 31 1 6 0;
#X connect 32 0 9 0;
#X connect 32 0 31 0;
#X connect 34 0 36 0;
#X connect 34 0 35 0;
#X connect 34 0 93 0;
#X connect 35 0 34 1;
#X connect 37 0 34 0;
#X connect 38 0 79 0;
#X connect 39 0 80 0;
#X connect 41 0 38 0;
#X connect 43 0 54 0;
#X connect 44 0 43 1;
#X connect 45 0 44 0;
#X connect 46 0 44 0;
#X connect 48 0 45 0;
#X connect 49 0 46 0;
#X connect 51 0 77 0;
#X connect 52 0 78 0;
#X connect 53 0 92 0;
#X connect 53 0 92 1;
#X connect 53 0 1 1;
#X connect 53 0 1 0;
#X connect 53 1 47 0;
#X connect 54 0 50 0;
#X connect 54 0 53 0;
#X connect 56 0 66 0;
#X connect 57 0 56 1;
#X connect 58 0 57 0;
#X connect 59 0 57 0;
#X connect 61 0 58 0;
#X connect 62 0 59 0;
#X connect 64 0 81 0;
#X connect 65 0 82 0;
#X connect 66 0 63 0;
#X connect 66 0 67 0;
#X connect 67 0 90 0;
#X connect 67 0 91 0;
#X connect 67 1 60 0;
#X connect 68 0 70 0;
#X connect 69 0 70 0;
#X connect 70 0 64 1;
#X connect 71 0 73 0;
#X connect 72 0 73 0;
#X connect 73 0 65 1;
#X connect 74 0 68 0;
#X connect 74 1 69 0;
#X connect 74 2 71 0;
#X connect 74 3 72 0;
#X connect 75 0 76 0;
#X connect 77 0 43 0;
#X connect 78 0 43 0;
#X connect 79 0 2 0;
#X connect 80 0 2 0;
#X connect 81 0 56 0;
#X connect 82 0 56 0;
#X connect 83 0 51 0;
#X connect 84 0 64 0;
#X connect 85 0 52 0;
#X connect 86 0 65 0;
#X connect 87 0 39 0;
#X connect 88 0 92 0;
#X connect 88 0 1 0;
#X connect 89 0 92 1;
#X connect 89 0 1 1;
#X connect 90 0 92 1;
#X connect 90 0 1 1;
#X connect 91 0 92 0;
#X connect 91 0 1 0;
#X connect 94 0 11 0;
#X connect 95 0 92 0;
