#N canvas 0 87 1366 681 10;
#N canvas 0 50 450 250 (subpatch) 0;
#X array temp-speech 78388 float 2;
#X coords 0 1 78388 -1 200 140 1 0 0;
#X restore 164 283 graph;
#X obj 370 505 dac~;
#X obj 25 330 spigot;
#X obj 58 287 tgl 15 0 empty empty empty 17 7 0 10 -262144 -1 -1 1
1;
#X msg 134 269 1;
#X msg 58 269 0;
#X obj 154 435 send unsolo;
#X obj 134 251 receive unsolo;
#X obj 58 251 receive solo;
#X obj 25 408 send solo;
#X obj 532 540 writesf~;
#X msg 637 528 stop;
#X msg 531 501 open vocal.wav \, start \;;
#X obj 275 -27 textfile;
#X msg 275 -79 rewind, f 8;
#X obj 274 -61 metro 1000;
#X obj 274 -43 bng 15 250 50 0 empty empty empty 17 7 0 10 -262144
-1 -1;
#X obj 274 -115 loadbang;
#X obj 274 -10 unpack f s f s f s;
#X msg 26 26 1;
#X msg 86 26 0;
#X obj 57 44 tgl 15 0 empty empty empty 17 7 0 10 -262144 -1 -1 0 1
;
#X msg 147 26 1;
#X msg 207 26 0;
#X obj 183 44 tgl 15 0 empty empty empty 17 7 0 10 -262144 -1 -1 0
1;
#X obj 26 8 select rise-begin rise-end fall-begin fall-end none;
#X msg 417 26 1;
#X msg 477 26 0;
#X obj 448 44 tgl 15 0 empty empty empty 17 7 0 10 -262144 -1 -1 0
1;
#X msg 538 26 1;
#X msg 598 26 0;
#X obj 574 44 tgl 15 0 empty empty empty 17 7 0 10 -262144 -1 -1 1
1;
#X obj 417 8 select rise-begin rise-end fall-begin fall-end none;
#X obj 25 435 tabplay~ temp-speech;
#X obj 25 384 flite temp-speech;
#X obj 403 -11 print;
#X obj 466 -43 f;
#X obj 488 -43 + 1;
#X obj 466 -25 print;
#X msg 466 -61 0;
#X msg 274 -97 read ../data/sensors.dat;
#X obj 25 103 spigot;
#X obj 152 106 spigot;
#X floatatom 164 -43 5 0 0 0 - - -, f 5;
#X obj 152 84 deltagt 0.5;
#X obj 25 83 deltagt 0.5;
#N canvas 0 50 450 250 (subpatch) 0;
#X array pm-speech 73988 float 2;
#X coords 0 1 73988 -1 200 140 1 0 0;
#X restore 570 302 graph;
#X obj 417 344 spigot;
#X obj 450 306 tgl 15 0 empty empty empty 17 7 0 10 -262144 -1 -1 1
1;
#X msg 526 288 1;
#X msg 450 288 0;
#X obj 536 447 send unsolo;
#X obj 526 270 receive unsolo;
#X obj 450 270 receive solo;
#X obj 417 401 send solo;
#X obj 417 122 spigot;
#X obj 538 125 spigot;
#X obj 417 423 tabplay~ pm-speech;
#X obj 417 378 flite pm-speech;
#X obj 417 101 deltagt 2;
#X obj 538 100 deltagt 2;
#N canvas 0 50 450 250 (subpatch) 0;
#X array turbid-speech 63648 float 2;
#X coords 0 1 63648 -1 200 140 1 0 0;
#X restore 1139 304 graph;
#X obj 869 317 spigot;
#X obj 902 287 tgl 15 0 empty empty empty 17 7 0 10 -262144 -1 -1 1
1;
#X msg 978 269 1;
#X msg 902 269 0;
#X obj 998 439 send unsolo;
#X obj 978 251 receive unsolo;
#X obj 902 251 receive solo;
#X obj 869 377 send solo;
#X obj 870 90 spigot;
#X obj 997 93 spigot;
#X obj 869 343 flite turbid-speech;
#X obj 869 416 tabplay~ turbid-speech;
#X msg 870 26 1;
#X msg 930 26 0;
#X obj 901 44 tgl 15 0 empty empty empty 17 7 0 10 -262144 -1 -1 0
1;
#X msg 991 26 1;
#X msg 1051 26 0;
#X obj 1027 44 tgl 15 0 empty empty empty 17 7 0 10 -262144 -1 -1 0
1;
#X obj 870 8 select rise-begin rise-end fall-begin fall-end none;
#X obj 870 69 deltagt 10;
#X obj 997 71 deltagt 10;
#X obj 620 -78 loadbang;
#X obj 620 -55 send unsolo;
#X msg 869 131 text water is murkier \, synth;
#X msg 869 149 text water is clearer \, synth;
#X msg 25 140 text getting warmer \, synth;
#X msg 25 158 text getting colder \, synth;
#X msg 25 194 text stopped warming up \, synth;
#X msg 25 212 text started getting colder \, synth;
#X msg 25 230 text stopped getting colder \, synth;
#X msg 417 154 text air pollution rising \, synth;
#X msg 416 172 text air pollution falling \, synth;
#X msg 417 208 text air stopped getting dirtier \, synth;
#X msg 417 226 text air becoming cleaner \, synth;
#X msg 417 244 text air stopped getting cleaner \, synth;
#X msg 869 185 text water stopped becoming murkier \, synth;
#X msg 869 221 text water has stopped clearing \, synth;
#X msg 25 176 text started warming up \, synth;
#X msg 869 167 text water becoming murky \, synth;
#X msg 869 203 text water clearing \, synth;
#X msg 417 190 text air pollution started rising \, synth;
#X connect 2 0 34 0;
#X connect 3 0 2 1;
#X connect 4 0 3 0;
#X connect 5 0 3 0;
#X connect 7 0 4 0;
#X connect 8 0 5 0;
#X connect 11 0 10 0;
#X connect 12 0 10 0;
#X connect 13 0 18 0;
#X connect 13 0 35 0;
#X connect 14 0 13 0;
#X connect 14 0 39 0;
#X connect 15 0 13 0;
#X connect 15 0 16 0;
#X connect 15 0 36 0;
#X connect 17 0 15 0;
#X connect 17 0 14 0;
#X connect 17 0 40 0;
#X connect 18 0 43 0;
#X connect 18 0 44 0;
#X connect 18 0 45 0;
#X connect 18 1 25 0;
#X connect 18 2 59 0;
#X connect 18 2 60 0;
#X connect 18 3 32 0;
#X connect 18 4 81 0;
#X connect 18 4 82 0;
#X connect 18 5 80 0;
#X connect 19 0 21 0;
#X connect 19 0 99 0;
#X connect 20 0 21 0;
#X connect 21 0 41 1;
#X connect 22 0 24 0;
#X connect 22 0 90 0;
#X connect 23 0 24 0;
#X connect 24 0 42 1;
#X connect 25 0 19 0;
#X connect 25 1 20 0;
#X connect 25 2 22 0;
#X connect 25 3 23 0;
#X connect 26 0 28 0;
#X connect 26 0 102 0;
#X connect 27 0 28 0;
#X connect 28 0 55 1;
#X connect 29 0 31 0;
#X connect 29 0 95 0;
#X connect 30 0 31 0;
#X connect 31 0 56 1;
#X connect 32 0 26 0;
#X connect 32 1 27 0;
#X connect 32 2 29 0;
#X connect 32 3 30 0;
#X connect 33 0 1 0;
#X connect 33 0 1 1;
#X connect 33 0 10 0;
#X connect 33 1 6 0;
#X connect 34 0 9 0;
#X connect 34 0 33 0;
#X connect 36 0 38 0;
#X connect 36 0 37 0;
#X connect 37 0 36 1;
#X connect 39 0 36 0;
#X connect 40 0 13 0;
#X connect 41 0 87 0;
#X connect 42 0 88 0;
#X connect 44 0 42 0;
#X connect 45 0 41 0;
#X connect 47 0 58 0;
#X connect 48 0 47 1;
#X connect 49 0 48 0;
#X connect 50 0 48 0;
#X connect 52 0 49 0;
#X connect 53 0 50 0;
#X connect 55 0 92 0;
#X connect 56 0 93 0;
#X connect 57 0 1 0;
#X connect 57 0 1 1;
#X connect 57 0 10 0;
#X connect 57 1 51 0;
#X connect 58 0 54 0;
#X connect 58 0 57 0;
#X connect 59 0 55 0;
#X connect 60 0 56 0;
#X connect 62 0 72 0;
#X connect 63 0 62 1;
#X connect 64 0 63 0;
#X connect 65 0 63 0;
#X connect 67 0 64 0;
#X connect 68 0 65 0;
#X connect 70 0 86 0;
#X connect 71 0 85 0;
#X connect 72 0 69 0;
#X connect 72 0 73 0;
#X connect 73 0 1 0;
#X connect 73 0 1 1;
#X connect 73 0 10 0;
#X connect 73 1 66 0;
#X connect 74 0 76 0;
#X connect 74 0 101 0;
#X connect 75 0 76 0;
#X connect 76 0 70 1;
#X connect 77 0 79 0;
#X connect 77 0 100 0;
#X connect 78 0 79 0;
#X connect 79 0 71 1;
#X connect 80 0 74 0;
#X connect 80 1 75 0;
#X connect 80 2 77 0;
#X connect 80 3 78 0;
#X connect 81 0 70 0;
#X connect 82 0 71 0;
#X connect 83 0 84 0;
#X connect 85 0 62 0;
#X connect 86 0 62 0;
#X connect 87 0 2 0;
#X connect 88 0 2 0;
#X connect 89 0 2 0;
#X connect 90 0 2 0;
#X connect 91 0 2 0;
#X connect 92 0 47 0;
#X connect 93 0 47 0;
#X connect 94 0 47 0;
#X connect 95 0 47 0;
#X connect 96 0 47 0;
#X connect 97 0 62 0;
#X connect 98 0 62 0;
#X connect 99 0 2 0;
#X connect 100 0 62 0;
#X connect 101 0 62 0;
#X connect 102 0 47 0;
