#N canvas 46 177 1024 493 10;
#X obj 265 516 +~;
#X obj 264 615 dac~;
#X text 8 7 sonic kayak zone mixer;
#X msg 309 67 port 8888;
#X obj 308 87 udpreceive 8888;
#X obj 308 107 unpackOSC;
#X obj 306 128 route /entered-zone /left-zone;
#X msg 10 220 1;
#X msg 16 169 0;
#X obj 305 150 unpack s;
#X obj 408 151 unpack s;
#X obj 10 386 loadbang;
#X msg 10 410 1;
#X msg 41 426 0;
#X msg 42 66 \; pd dsp 1;
#X obj 41 35 loadbang;
#X obj 290 515 +~;
#X msg 397 273 1;
#X text 17 361 startup sound;
#X obj 50 238 zone-gps-sense;
#N canvas 0 50 450 250 (subpatch) 0;
#X array out 100 float 3;
#A 0 0 0 0 0 0 0 0 0 0 0 0 0 0 0 0 0 0 0 0 0 0 0 0 0 0 0 0 0 0 0 0
0 0 0 0 0 0 0 0 0 0 0 0 0 0 0 0 0 0 0 0 0 0 0 0 0 0 0 0 0 0 0 0 0 0
0 0 0 0 0 0 0 0 0 0 0 0 0 0 0 0 0 0 0 0 0 0 0 0 0 0 0 0 0 0 0 0 0 0
0;
#X coords 0 1 99 -1 200 140 1;
#X restore 1703 14 graph;
#X text 13 189 continuously playing things;
#X text 304 46 input from swamp zone system;
#X msg 246 269 0;
#X msg 215 268 1;
#X obj 206 314 loop;
#X obj 238 294 loadbang;
#X obj 10 498 loop;
#X obj 42 478 loadbang;
#X msg 44 498 _ ../sound/kayaks.wav;
#X obj 41 404 delay 30000;
#X obj 16 153 bng 15 250 50 0 empty empty empty 17 7 0 10 -262144 -1
-1;
#X obj 260 574 *~;
#X obj 286 573 *~;
#X floatatom 195 558 5 0 0 0 - - -, f 5;
#X obj 194 514 loadbang;
#X msg 194 536 4;
#X obj 397 369 +~;
#X obj 423 369 +~;
#X obj 436 292 loadbang;
#X obj 397 292 1shot;
#X msg 1377 253 1;
#X msg 1410 254 1;
#X msg 1407 302 _ ../sound/lz7.wav;
#X msg 1407 323 _ ../sound/lz8.wav;
#X msg 1411 348 _ ../sound/lz9.wav;
#X msg 1406 373 _ ../sound/lz10.wav;
#X obj 214 221 select start;
#X obj 216 246 select start;
#X obj 50 256 synth-sonification;
#X obj 397 208 select z zend, f 17;
#X msg 488 292 _ ../sound/duck.wav;
#X msg 398 232 1;
#X obj 437 251 loadbang;
#X obj 398 251 1shot;
#X msg 489 251 _ ../sound/pulse_fat.wav;
#X msg 240 313 _ ../sound/welcome.wav;
#X obj 50 274 zone-hydrophone;
#X connect 0 0 32 0;
#X connect 3 0 4 0;
#X connect 4 0 5 0;
#X connect 5 0 6 0;
#X connect 6 0 9 0;
#X connect 6 1 10 0;
#X connect 7 0 19 0;
#X connect 7 0 49 0;
#X connect 7 0 57 0;
#X connect 9 0 31 0;
#X connect 9 0 47 0;
#X connect 9 0 50 0;
#X connect 10 0 48 0;
#X connect 11 0 12 0;
#X connect 11 0 30 0;
#X connect 12 0 27 0;
#X connect 13 0 27 0;
#X connect 15 0 14 0;
#X connect 15 0 7 0;
#X connect 16 0 33 0;
#X connect 17 0 40 0;
#X connect 19 0 0 0;
#X connect 19 1 16 0;
#X connect 23 0 25 0;
#X connect 24 0 25 0;
#X connect 25 0 0 0;
#X connect 25 1 16 0;
#X connect 26 0 56 0;
#X connect 27 0 0 0;
#X connect 27 1 16 0;
#X connect 28 0 29 0;
#X connect 29 0 27 1;
#X connect 30 0 13 0;
#X connect 31 0 8 0;
#X connect 32 0 1 0;
#X connect 33 0 1 1;
#X connect 34 0 32 1;
#X connect 34 0 33 1;
#X connect 35 0 36 0;
#X connect 36 0 34 0;
#X connect 37 0 0 0;
#X connect 38 0 16 0;
#X connect 39 0 51 0;
#X connect 40 0 37 0;
#X connect 40 1 38 0;
#X connect 47 0 24 0;
#X connect 48 0 23 0;
#X connect 49 0 0 0;
#X connect 49 1 16 0;
#X connect 50 0 52 0;
#X connect 50 1 17 0;
#X connect 51 0 40 1;
#X connect 52 0 54 0;
#X connect 53 0 55 0;
#X connect 54 0 37 0;
#X connect 54 1 38 0;
#X connect 55 0 54 1;
#X connect 56 0 25 1;
#X connect 57 0 0 0;
#X connect 57 1 16 0;
