#N canvas 0 87 1366 681 10;
#X obj 462 715 tabwrite~ out;
#X obj 460 672 bng 15 250 50 0 empty empty empty 17 7 0 10 -262144
-1 -1;
#X obj 461 691 metro 250;
#X obj 198 694 +~;
#X obj 197 793 dac~;
#X text 8 7 sonic kayak zone mixer;
#X msg 564 26 port 8888;
#X obj 563 46 udpreceive 8888;
#X obj 563 66 unpackOSC;
#X obj 561 87 route /entered-zone /left-zone;
#X msg 86 212 1;
#X msg 55 212 1;
#X msg 120 212 1;
#X msg 14 242 0;
#X msg 16 212 0;
#X msg 17 268 0;
#X obj 560 109 unpack s;
#X obj 663 110 unpack s;
#X obj 41 386 loadbang;
#X msg 41 410 1;
#X msg 99 425 0;
#X msg 42 66 \; pd dsp 1;
#X obj 41 35 loadbang;
#X obj 223 693 +~;
#X msg 233 257 1;
#X text 17 361 startup sound;
#X obj 50 238 zone-gps-sense;
#X obj 50 262 zone-tempwater-sine;
#N canvas 0 50 450 250 (subpatch) 0;
#X array out 100 float 3;
#A 0 0 0 0 0 0 0 0 0 0 0 0 0 0 0 0 0 0 0 0 0 0 0 0 0 0 0 0 0 0 0 0
0 0 0 0 0 0 0 0 0 0 0 0 0 0 0 0 0 0 0 0 0 0 0 0 0 0 0 0 0 0 0 0 0 0
0 0 0 0 0 0 0 0 0 0 0 0 0 0 0 0 0 0 0 0 0 0 0 0 0 0 0 0 0 0 0 0 0 0
0;
#X coords 0 1 99 -1 200 140 1;
#X restore 1703 14 graph;
#X text 13 190 continuously playing things;
#X text 559 5 input from swamp zone system;
#X msg 223 91 0;
#X msg 192 90 1;
#X obj 183 136 loop;
#X obj 215 116 loadbang;
#X obj 10 498 loop;
#X obj 42 478 loadbang;
#X msg 44 498 _ ../sound/kayaks.wav;
#X obj 99 403 delay 30000;
#X obj 32 173 bng 15 250 50 0 empty empty empty 17 7 0 10 -262144 -1
-1;
#X obj 193 752 *~;
#X obj 219 751 *~;
#X floatatom 127 771 5 0 0 0 - - -, f 5;
#X obj 127 699 loadbang;
#X msg 126 749 4;
#X obj 233 466 +~;
#X obj 259 466 +~;
#X obj 272 304 loadbang;
#X obj 233 304 1shot;
#X msg 324 304 _ ../sound/z1.wav;
#X msg 217 136 _ ../sound/start.wav;
#X msg 1377 253 1;
#X msg 1410 254 1;
#X msg 1407 302 _ ../sound/lz7.wav;
#X msg 1407 323 _ ../sound/lz8.wav;
#X msg 1411 348 _ ../sound/lz9.wav;
#X msg 1406 373 _ ../sound/lz10.wav;
#X obj 191 43 select start;
#X obj 193 68 select start;
#X obj 257 179 select z1 z2 z3 z4 z5 z6 z7 z8 z9 z10, f 90;
#X obj 74 298 zone-pm;
#X connect 1 0 2 0;
#X connect 2 0 0 0;
#X connect 3 0 40 0;
#X connect 6 0 7 0;
#X connect 7 0 8 0;
#X connect 8 0 9 0;
#X connect 9 0 16 0;
#X connect 9 1 17 0;
#X connect 10 0 27 0;
#X connect 11 0 26 0;
#X connect 12 0 60 0;
#X connect 13 0 27 0;
#X connect 14 0 26 0;
#X connect 16 0 39 0;
#X connect 16 0 57 0;
#X connect 16 0 59 0;
#X connect 17 0 58 0;
#X connect 18 0 19 0;
#X connect 18 0 38 0;
#X connect 19 0 35 0;
#X connect 20 0 35 0;
#X connect 22 0 21 0;
#X connect 22 0 12 0;
#X connect 22 0 10 0;
#X connect 22 0 11 0;
#X connect 23 0 0 0;
#X connect 23 0 41 0;
#X connect 24 0 48 0;
#X connect 26 0 3 0;
#X connect 26 1 23 0;
#X connect 31 0 33 0;
#X connect 32 0 33 0;
#X connect 33 0 3 0;
#X connect 33 1 23 0;
#X connect 34 0 50 0;
#X connect 35 0 3 0;
#X connect 35 1 23 0;
#X connect 36 0 37 0;
#X connect 37 0 35 1;
#X connect 38 0 20 0;
#X connect 39 0 14 0;
#X connect 40 0 4 0;
#X connect 41 0 4 1;
#X connect 42 0 40 1;
#X connect 42 0 41 1;
#X connect 43 0 44 0;
#X connect 44 0 42 0;
#X connect 45 0 3 0;
#X connect 46 0 23 0;
#X connect 47 0 49 0;
#X connect 48 0 45 0;
#X connect 48 1 46 0;
#X connect 49 0 48 1;
#X connect 50 0 33 1;
#X connect 57 0 32 0;
#X connect 58 0 31 0;
#X connect 59 0 24 0;
#X connect 60 0 3 0;
#X connect 60 1 23 0;
