#N canvas 81 140 827 612 10;
#X obj 207 470 outlet~;
#X obj 11 23 inlet;
#X obj 141 446 *~;
#X obj 76 54 line~;
#X obj 77 29 pack 1 5000;
#X obj 9 135 switch~;
#X obj 10 46 moses 1;
#X obj 10 91 delay 5000;
#X floatatom 10 118 5 0 0 0 - - -, f 5;
#X obj 8 69 sel 0;
#X text 156 29 fade in/out bit;
#X text 6 0 switch off the audio dsp after it's finished fading out
;
#X text 10 196 comment;
#X obj 389 273 phasor~;
#X obj 430 317 vcf~;
#X floatatom 511 287 5 0 0 0 - - -, f 5;
#X obj 508 237 loadbang;
#X obj 142 471 outlet~;
#X obj 192 444 *~;
#X obj 310 67 unpackOSC;
#X obj 438 248 line;
#X floatatom 438 274 5 0 0 0 - - -, f 5;
#X floatatom 392 250 5 0 0 0 - - -, f 5;
#X obj 310 86 route /gps;
#X obj 448 166 bng 15 250 50 0 empty empty empty 17 7 0 10 -262144
-1 -1;
#X obj 438 295 *;
#X floatatom 474 274 5 0 0 0 - - -, f 5;
#X msg 309 30 port 8890;
#X obj 310 49 udpreceive 8890;
#X obj 411 208 1 10;
#X msg 511 267 26;
#X msg 381 208 20;
#X msg 471 247 203;
#X obj 445 208 0 200;
#X obj 446 186 delay 50;
#X obj 442 392 *~ 0.0;
#X obj 329 138 select 999;
#X obj 208 170 bng 15 250 50 0 empty empty empty 17 7 0 10 -262144
-1 -1;
#X msg 179 217 200;
#X obj 179 269 phasor~;
#X obj 232 314 vcf~;
#X floatatom 319 285 5 0 0 0 - - -, f 5;
#X obj 313 206 loadbang;
#X obj 228 242 line;
#X floatatom 228 268 5 0 0 0 - - -, f 5;
#X floatatom 181 245 5 0 0 0 - - -, f 5;
#X obj 240 292 *;
#X floatatom 264 268 5 0 0 0 - - -, f 5;
#X obj 236 412 *~ 0.2;
#X obj 209 216 1 10;
#X obj 241 189 delay 100;
#X obj 245 213 0 100;
#X msg 316 236 40;
#X msg 261 241 875;
#X obj 349 112 unpack f f i;
#X obj 587 182 float;
#X obj 640 172 + 1;
#X obj 584 162 bng 15 250 50 0 empty empty empty 17 7 0 10 -262144
-1 -1;
#X obj 587 205 mod 10;
#X obj 587 228 select 0;
#X obj 590 250 bng 15 250 50 0 empty empty empty 17 7 0 10 -262144
-1 -1;
#X obj 694 290 osc~;
#X obj 692 226 + 1;
#X obj 692 262 * 100;
#X obj 621 298 line;
#X floatatom 621 324 5 0 0 0 - - -, f 5;
#X obj 631 366 *~;
#X obj 591 269 1 1;
#X obj 617 249 delay 100;
#X obj 634 392 bp~ 220 3;
#X obj 621 273 0 800;
#X obj 520 410 *~ 0.0;
#X connect 1 0 4 0;
#X connect 1 0 6 0;
#X connect 2 0 17 0;
#X connect 3 0 2 1;
#X connect 3 0 18 1;
#X connect 4 0 3 0;
#X connect 6 0 9 0;
#X connect 6 1 5 0;
#X connect 7 0 8 0;
#X connect 8 0 5 0;
#X connect 9 0 7 0;
#X connect 13 0 14 0;
#X connect 14 0 35 0;
#X connect 15 0 14 2;
#X connect 16 0 30 0;
#X connect 16 0 32 0;
#X connect 18 0 0 0;
#X connect 19 0 23 0;
#X connect 20 0 21 0;
#X connect 21 0 25 0;
#X connect 22 0 13 0;
#X connect 23 0 54 0;
#X connect 24 0 29 0;
#X connect 24 0 34 0;
#X connect 24 0 31 0;
#X connect 25 0 14 1;
#X connect 26 0 25 1;
#X connect 27 0 28 0;
#X connect 28 0 19 0;
#X connect 29 0 20 0;
#X connect 30 0 15 0;
#X connect 31 0 22 0;
#X connect 32 0 26 0;
#X connect 33 0 20 0;
#X connect 34 0 33 0;
#X connect 35 0 2 0;
#X connect 35 0 18 0;
#X connect 36 0 37 0;
#X connect 36 1 24 0;
#X connect 37 0 38 0;
#X connect 37 0 49 0;
#X connect 37 0 50 0;
#X connect 38 0 45 0;
#X connect 39 0 40 0;
#X connect 40 0 48 0;
#X connect 41 0 40 2;
#X connect 42 0 52 0;
#X connect 42 0 53 0;
#X connect 43 0 44 0;
#X connect 44 0 46 0;
#X connect 45 0 39 0;
#X connect 46 0 40 1;
#X connect 47 0 46 1;
#X connect 48 0 0 0;
#X connect 48 0 17 0;
#X connect 49 0 43 0;
#X connect 50 0 51 0;
#X connect 51 0 43 0;
#X connect 52 0 41 0;
#X connect 53 0 47 0;
#X connect 54 0 36 0;
#X connect 54 2 57 0;
#X connect 54 2 62 0;
#X connect 55 0 56 0;
#X connect 55 0 58 0;
#X connect 56 0 55 1;
#X connect 57 0 55 0;
#X connect 58 0 59 0;
#X connect 59 0 60 0;
#X connect 60 0 67 0;
#X connect 60 0 68 0;
#X connect 61 0 66 0;
#X connect 62 0 63 0;
#X connect 63 0 61 0;
#X connect 64 0 65 0;
#X connect 65 0 66 1;
#X connect 66 0 69 0;
#X connect 67 0 64 0;
#X connect 68 0 70 0;
#X connect 69 0 71 0;
#X connect 70 0 64 0;
#X connect 71 0 17 0;
#X connect 71 0 0 0;
