#N canvas 576 176 625 420 10;
#X obj 491 278 outlet~;
#X obj 11 23 inlet;
#X obj 445 223 *~;
#X obj 76 54 line~;
#X obj 77 29 pack 1 5000;
#X obj 9 135 switch~;
#X obj 10 46 moses 1;
#X obj 10 91 delay 5000;
#X floatatom 10 118 5 0 0 0 - - -, f 5;
#X obj 8 69 sel 0;
#X text 255 25 fade in/out bit;
#X text 6 0 switch off the audio dsp after it's finished fading out
;
#X obj 446 279 outlet~;
#X obj 467 223 *~;
#X obj 445 149 adc~;
#X floatatom 480 165 5 0 0 0 - - -, f 5;
#X obj 467 182 *~;
#X obj 444 182 *~;
#X obj 480 129 loadbang;
#X msg 480 147 4;
#X obj 444 323 writesf~;
#X obj 119 106 loadbang;
#X text 9 322 chop audio into 5 min chunks;
#X obj 10 205 bng 15 250 50 0 empty empty empty 17 7 0 10 -262144 -1
-1;
#X obj 10 238 f;
#X obj 32 238 + 1;
#X msg 10 220 0;
#X obj 59 238 makefilename hydro-%%d-%d.wav;
#X msg 59 256 set \$1;
#X obj 59 274 makefilename _;
#X msg 9 305 stop \, open \$1 \, start \;;
#X text 9 343 add random num so we don't overwrite the file;
#X obj 59 220 f;
#X obj 9 188 metro 300000;
#X obj 106 213 textfile;
#X obj 106 152 f;
#X obj 119 170 + 1;
#X msg 119 190 set \$1 \, write trip.txt \;;
#X msg 119 128 read trip.txt \, rewind \, bang \;;
#X connect 1 0 4 0;
#X connect 1 0 6 0;
#X connect 2 0 12 0;
#X connect 2 0 20 0;
#X connect 3 0 2 1;
#X connect 3 0 13 1;
#X connect 4 0 3 0;
#X connect 6 0 9 0;
#X connect 6 1 5 0;
#X connect 7 0 8 0;
#X connect 8 0 5 0;
#X connect 9 0 7 0;
#X connect 13 0 0 0;
#X connect 13 0 20 0;
#X connect 14 0 17 0;
#X connect 14 0 16 0;
#X connect 14 1 16 0;
#X connect 14 1 17 0;
#X connect 15 0 16 1;
#X connect 15 0 17 1;
#X connect 16 0 13 0;
#X connect 17 0 2 0;
#X connect 18 0 19 0;
#X connect 19 0 15 0;
#X connect 21 0 38 0;
#X connect 23 0 32 0;
#X connect 24 0 25 0;
#X connect 24 0 29 0;
#X connect 25 0 24 1;
#X connect 26 0 24 0;
#X connect 27 0 28 0;
#X connect 28 0 29 0;
#X connect 29 0 30 0;
#X connect 30 0 20 0;
#X connect 32 0 27 0;
#X connect 33 0 23 0;
#X connect 33 0 24 0;
#X connect 34 0 35 0;
#X connect 35 0 36 0;
#X connect 35 0 32 1;
#X connect 35 0 33 0;
#X connect 36 0 37 0;
#X connect 37 0 34 0;
#X connect 38 0 34 0;
