#N canvas 0 87 1366 681 10;
#X obj 30 164 soundfiler;
#N canvas 0 22 450 300 (subpatch) 0;
#X array temp-sample 41639 float 0;
#X coords 0 1 41638 -1 200 140 1 0 0;
#X restore 214 192 graph;
#X obj 30 128 loadbang;
#X floatatom 487 165 5 0 0 0 - - -, f 5;
#X obj 40 317 tabread4~ temp-sample;
#X obj 86 431 *~ 0.8;
#X obj 41 430 *~ 0.2;
#X obj 606 348 phasor~;
#X obj 590 405 +~;
#X obj 605 385 *~;
#X obj 621 304 expr (44100 / $f1);
#X obj 788 232 r sampleSize;
#X obj 661 283 s sampleLen;
#X obj 629 368 r sampleLen;
#X obj 627 247 hsl 64 15 0 1 0 1 empty empty empty -2 -8 0 10 -262144
-1 -1 3752 1;
#X obj 621 266 *;
#X obj 479 369 r sampleSize;
#X obj 467 351 hsl 128 15 0 1 0 0 empty empty empty -2 -8 0 10 -262144
-1 -1 0 1;
#X obj 464 388 *;
#X text 462 336 Starting point;
#X text 618 233 Lenght;
#X obj 539 284 hsl 64 15 -10 10 0 0 empty empty empty -2 -8 0 10 -262144
-1 -1 3465 1;
#X floatatom 536 314 8 0 0 0 - - -, f 8;
#X msg 506 311 1, f 2;
#X text 562 266 Speed;
#X obj 606 327 *;
#X obj 464 411 s sampleStart;
#X obj 695 228 r sampleStart;
#X obj 695 249 expr $f2 - $f1;
#X obj 506 282 bng 15 250 50 0 empty empty empty 17 7 0 10 -262144
-1 -1;
#X obj 589 460 s~ waveout;
#X obj 589 437 +~;
#X obj 707 376 phasor~;
#X obj 656 421 samphold~;
#X obj 536 264 bng 15 250 50 0 empty empty empty 17 7 0 10 -262144
-1 -1;
#X text 704 336 Granular phasor;
#X obj 739 355 hsl 128 15 0 10000 0 0 empty empty empty -2 -8 0 10
-262144 -1 -1 7564 1;
#X obj 707 401 *~ 8;
#X text 460 457 sampler section;
#X msg 429 335 0;
#X msg 665 338 0;
#X obj 30 187 s sampleSize;
#X obj 40 297 r~ waveout;
#X msg 30 144 read -resize froggy.wav temp-sample;
#X obj 40 473 dac~;
#X obj 487 78 metro 1000;
#X obj 487 40 loadbang;
#X obj 487 60 bng 15 250 50 0 empty empty empty 17 7 0 10 -262144 -1
-1;
#X obj 487 100 random 100;
#X obj 487 122 pack 0 1000;
#X obj 487 143 line;
#X obj 538 182 * 0.01;
#X obj 626 156 * 100;
#X obj 461 217 loadbang;
#X connect 0 0 41 0;
#X connect 2 0 43 0;
#X connect 3 0 51 0;
#X connect 3 0 52 0;
#X connect 4 0 6 0;
#X connect 4 0 5 0;
#X connect 5 0 44 1;
#X connect 6 0 44 0;
#X connect 7 0 9 0;
#X connect 8 0 31 0;
#X connect 8 0 33 0;
#X connect 9 0 8 1;
#X connect 10 0 25 1;
#X connect 11 0 28 1;
#X connect 13 0 9 1;
#X connect 14 0 15 0;
#X connect 14 0 34 0;
#X connect 15 0 12 0;
#X connect 15 0 10 0;
#X connect 16 0 18 1;
#X connect 17 0 18 0;
#X connect 18 0 26 0;
#X connect 18 0 8 0;
#X connect 21 0 22 0;
#X connect 22 0 25 0;
#X connect 23 0 22 0;
#X connect 23 0 21 0;
#X connect 23 0 25 0;
#X connect 25 0 7 0;
#X connect 27 0 28 0;
#X connect 28 0 15 1;
#X connect 29 0 23 0;
#X connect 31 0 30 0;
#X connect 32 0 37 0;
#X connect 33 0 31 1;
#X connect 34 0 21 0;
#X connect 36 0 32 0;
#X connect 37 0 33 1;
#X connect 39 0 17 0;
#X connect 40 0 36 0;
#X connect 42 0 4 0;
#X connect 43 0 0 0;
#X connect 45 0 48 0;
#X connect 46 0 47 0;
#X connect 47 0 45 0;
#X connect 48 0 49 0;
#X connect 49 0 50 0;
#X connect 50 0 3 0;
#X connect 51 0 14 0;
#X connect 52 0 36 0;
#X connect 53 0 29 0;
#X connect 53 0 39 0;
