#N canvas 194 111 1172 614 10;
#X obj 427 317 dac~;
#X obj 267 -222 textfile;
#X obj 266 -256 metro 1000;
#X obj 266 -238 bng 15 250 50 0 empty empty empty 17 7 0 10 -262144
-1 -1;
#X obj 266 -310 loadbang;
#X msg 266 -292 read sensors.dat;
#X obj 266 -205 unpack f s f s f s;
#X msg 43 -169 1;
#X msg 103 -169 0;
#X msg 164 -169 1;
#X msg 224 -169 0;
#X obj 43 -187 select rise-begin rise-end fall-begin fall-end none
;
#X msg 401 -169 1;
#X msg 461 -169 0;
#X obj 432 -151 tgl 15 0 empty empty empty 17 7 0 10 -262144 -1 -1
0 1;
#X msg 522 -169 1;
#X msg 582 -169 0;
#X obj 551 -151 tgl 15 0 empty empty empty 17 7 0 10 -262144 -1 -1
0 1;
#X obj 401 -187 select rise-begin rise-end fall-begin fall-end none
;
#X msg 733 -169 1;
#X msg 793 -169 0;
#X obj 764 -151 tgl 15 0 empty empty empty 17 7 0 10 -262144 -1 -1
0 1;
#X msg 824 -169 1;
#X msg 884 -169 0;
#X obj 860 -151 tgl 15 0 empty empty empty 17 7 0 10 -262144 -1 -1
1 1;
#X obj 733 -187 select rise-begin rise-end fall-begin fall-end none
;
#X obj 458 -238 f;
#X obj 480 -238 + 1;
#X obj 537 -220 print;
#X msg 458 -256 0;
#X msg 585 297 stop;
#X msg 484 275 open synth.wav \, start \;;
#X obj 485 314 writesf~ 2;
#X obj 696 -135 change;
#X msg 266 -274 rewind, f 8;
#X obj 430 211 +~;
#X obj 454 212 +~;
#X obj 785 -72 soundfiler;
#N canvas 0 22 450 300 (subpatch) 0;
#X array temp-sample 41639 float 0;
#X coords 0 1 41638 -1 200 140 1 0 0;
#X restore 969 -44 graph;
#X obj 785 -108 loadbang;
#X floatatom 912 -58 5 0 0 0 - - -, f 5;
#X obj 795 81 tabread4~ temp-sample;
#X obj 849 -118 spigot;
#X obj 841 195 *~ 0.8;
#X obj 796 194 *~ 0.2;
#X obj 1243 -178 phasor~;
#X obj 1227 -121 +~;
#X obj 1242 -141 *~;
#X obj 1258 -222 expr (44100 / $f1);
#X obj 1425 -294 r sampleSize;
#X obj 1298 -243 s sampleLen;
#X obj 1266 -158 r sampleLen;
#X obj 1264 -279 hsl 64 15 0 1 0 1 empty empty empty -2 -8 0 10 -262144
-1 -1 546 1;
#X obj 1258 -260 *;
#X obj 1116 -157 r sampleSize;
#X obj 1104 -174 hsl 128 15 0 1 0 0 empty empty empty -2 -8 0 10 -262144
-1 -1 1700 1;
#X obj 1101 -138 *;
#X text 1099 -190 Starting point;
#X text 1255 -293 Lenght;
#X obj 1176 -242 hsl 64 15 -10 10 0 0 empty empty empty -2 -8 0 10
-262144 -1 -1 3465 1;
#X floatatom 1173 -212 8 0 0 0 - - -, f 8;
#X msg 1143 -215 1, f 2;
#X text 1199 -260 Speed;
#X obj 1243 -199 *;
#X obj 1101 -115 s sampleStart;
#X obj 1332 -298 r sampleStart;
#X obj 1332 -277 expr $f2 - $f1;
#X obj 1143 -244 bng 15 250 50 0 empty empty empty 17 7 0 10 -262144
-1 -1;
#X obj 1226 -66 s~ waveout;
#X obj 1226 -89 +~;
#X obj 1344 -150 phasor~;
#X obj 1293 -105 samphold~;
#X obj 1173 -262 bng 15 250 50 0 empty empty empty 17 7 0 10 -262144
-1 -1;
#X text 1341 -190 Granular phasor;
#X obj 1347 -171 hsl 128 15 0 10000 0 0 empty empty empty -2 -8 0 10
-262144 -1 -1 11 1;
#X obj 1344 -125 *~ 8;
#X text 1097 -69 sampler section;
#X msg 1066 -191 0;
#X msg 1302 -188 0;
#X obj 785 -49 s sampleSize;
#X obj 795 61 r~ waveout;
#X msg 785 -92 read -resize froggy.wav temp-sample;
#X obj 1016 -116 * 0.0001;
#X obj 1059 -82 * 0.01;
#X obj 794 147 *~;
#X obj 714 66 pack 0 1000;
#X obj 714 89 line;
#X connect 1 0 6 0;
#X connect 2 0 1 0;
#X connect 2 0 3 0;
#X connect 2 0 26 0;
#X connect 4 0 2 0;
#X connect 4 0 34 0;
#X connect 4 0 5 0;
#X connect 5 0 1 0;
#X connect 6 1 11 0;
#X connect 6 3 18 0;
#X connect 6 4 33 0;
#X connect 6 5 25 0;
#X connect 11 0 7 0;
#X connect 11 1 8 0;
#X connect 11 2 9 0;
#X connect 11 3 10 0;
#X connect 12 0 14 0;
#X connect 13 0 14 0;
#X connect 15 0 17 0;
#X connect 16 0 17 0;
#X connect 18 0 12 0;
#X connect 18 1 13 0;
#X connect 18 2 15 0;
#X connect 18 3 16 0;
#X connect 19 0 21 0;
#X connect 20 0 21 0;
#X connect 21 0 42 1;
#X connect 21 0 85 0;
#X connect 22 0 24 0;
#X connect 23 0 24 0;
#X connect 24 0 42 1;
#X connect 24 0 85 0;
#X connect 25 0 19 0;
#X connect 25 1 20 0;
#X connect 25 2 22 0;
#X connect 25 3 23 0;
#X connect 26 0 27 0;
#X connect 26 0 28 0;
#X connect 27 0 26 1;
#X connect 29 0 26 0;
#X connect 30 0 32 0;
#X connect 31 0 32 0;
#X connect 33 0 42 0;
#X connect 34 0 1 0;
#X connect 34 0 29 0;
#X connect 35 0 0 0;
#X connect 36 0 0 1;
#X connect 37 0 79 0;
#X connect 39 0 81 0;
#X connect 40 0 82 0;
#X connect 40 0 83 0;
#X connect 41 0 84 0;
#X connect 42 0 40 0;
#X connect 43 0 36 0;
#X connect 44 0 35 0;
#X connect 45 0 47 0;
#X connect 46 0 69 0;
#X connect 46 0 71 0;
#X connect 47 0 46 1;
#X connect 48 0 63 1;
#X connect 49 0 66 1;
#X connect 51 0 47 1;
#X connect 52 0 53 0;
#X connect 52 0 72 0;
#X connect 53 0 50 0;
#X connect 53 0 48 0;
#X connect 54 0 56 1;
#X connect 55 0 56 0;
#X connect 56 0 64 0;
#X connect 56 0 46 0;
#X connect 59 0 60 0;
#X connect 60 0 63 0;
#X connect 61 0 60 0;
#X connect 61 0 59 0;
#X connect 61 0 63 0;
#X connect 63 0 45 0;
#X connect 65 0 66 0;
#X connect 66 0 53 1;
#X connect 67 0 61 0;
#X connect 69 0 68 0;
#X connect 70 0 75 0;
#X connect 71 0 69 1;
#X connect 72 0 59 0;
#X connect 74 0 70 0;
#X connect 75 0 71 1;
#X connect 77 0 55 0;
#X connect 78 0 74 0;
#X connect 80 0 41 0;
#X connect 81 0 37 0;
#X connect 82 0 52 0;
#X connect 83 0 74 0;
#X connect 84 0 44 0;
#X connect 84 0 43 0;
#X connect 85 0 86 0;
#X connect 86 0 84 1;
