#N canvas 194 111 1172 614 10;
#X obj 427 317 dac~;
#X obj 74 8 change;
#X obj 267 -222 textfile;
#X obj 266 -256 metro 1000;
#X obj 266 -238 bng 15 250 50 0 empty empty empty 17 7 0 10 -262144
-1 -1;
#X obj 266 -310 loadbang;
#X msg 266 -292 read sensors.dat;
#X obj 266 -205 unpack f s f s f s;
#X msg 43 -169 1;
#X msg 103 -169 0;
#X obj 74 -147 tgl 15 0 empty empty empty 17 7 0 10 -262144 -1 -1 0
1;
#X msg 164 -169 1;
#X msg 224 -169 0;
#X obj 200 -147 tgl 15 0 empty empty empty 17 7 0 10 -262144 -1 -1
1 1;
#X obj 43 -187 select rise-begin rise-end fall-begin fall-end none
;
#X msg 401 -169 1;
#X msg 461 -169 0;
#X obj 432 -151 tgl 15 0 empty empty empty 17 7 0 10 -262144 -1 -1
0 1;
#X msg 522 -169 1;
#X msg 582 -169 0;
#X obj 551 -151 tgl 15 0 empty empty empty 17 7 0 10 -262144 -1 -1
0 1;
#X obj 401 -187 select rise-begin rise-end fall-begin fall-end none
;
#X msg 733 -169 1;
#X msg 793 -169 0;
#X obj 764 -151 tgl 15 0 empty empty empty 17 7 0 10 -262144 -1 -1
0 1;
#X msg 824 -169 1;
#X msg 884 -169 0;
#X obj 860 -151 tgl 15 0 empty empty empty 17 7 0 10 -262144 -1 -1
1 1;
#X obj 733 -187 select rise-begin rise-end fall-begin fall-end none
;
#X obj 458 -238 f;
#X obj 480 -238 + 1;
#X obj 537 -220 print;
#X msg 458 -256 0;
#X msg 585 297 stop;
#X msg 484 275 open synth.wav \, start \;;
#X obj 485 314 writesf~ 2;
#X obj 493 -93 change;
#X obj 696 -135 change;
#X obj 493 9 phasor~;
#X floatatom 438 91 5 0 0 0 - - -, f 5;
#X obj 493 -29 line;
#X obj 493 -48 pack 0 1000;
#X msg 438 73 57;
#X obj 492 36 hip~ 500;
#X floatatom 502 90 5 0 0 0 - - -, f 5;
#X msg 502 72 500;
#X obj 502 54 loadbang;
#X obj 438 54 loadbang;
#X text 433 38 resonance;
#X obj 493 108 vcf~;
#X floatatom 493 -71 5 0 0 0 - - -, f 5;
#X msg 266 -274 rewind, f 8;
#X obj 430 242 +~;
#X obj 454 243 +~;
#X obj 557 76 pack 0 1000;
#X obj 557 94 line;
#X obj 493 140 *~;
#X obj 212 29 line;
#X obj 212 11 pack 0 1000;
#X obj 197 113 osc~;
#X obj 75 113 line;
#X obj 75 96 pack 0 1000;
#X obj 197 95 +~;
#X obj 196 -10 *~ 18;
#X obj 197 149 *~ 1;
#X obj 212 65 + 70;
#X obj 197 131 *~ 0.025;
#X obj 74 30 bng 15 250 50 0 empty empty empty 17 7 0 10 -262144 -1
-1;
#X obj 102 63 bng 15 250 50 0 empty empty empty 17 7 0 10 -262144 -1
-1;
#X msg 102 78 0;
#X msg 75 78 1;
#X obj 74 45 delay 1000;
#X obj 206 225 *~ 0.8;
#X obj 250 225 *~ 0.2;
#X obj 196 -29 osc~ 90;
#X floatatom 212 -91 5 0 0 0 - - -, f 5;
#X obj 229 197 *~;
#X obj 272 130 pack 0 1000;
#X obj 272 148 line;
#X obj 785 -72 soundfiler;
#N canvas 0 22 450 300 (subpatch) 0;
#X array temp-sample 106047 float 0;
#X coords 0 1 106046 -1 200 140 1 0 0;
#X restore 969 -44 graph;
#X obj 785 -108 loadbang;
#X obj 785 84 line~;
#X msg 812 67 0;
#X obj 784 -2 bng 15 250 50 0 empty empty empty 17 7 0 10 -262144 -1
-1;
#X obj 785 13 t b b;
#X obj 785 49 pack f f;
#X floatatom 785 31 5 0 0 0 - - -, f 5;
#X obj 830 22 expr (1.0/$f1)*44100;
#X obj 786 112 tabread4~ temp-sample;
#X obj 849 -118 spigot;
#X obj 838 224 *~ 0.8;
#X obj 786 223 *~ 0.2;
#X obj 829 -18 loadbang;
#X floatatom 212 -49 5 0 0 0 - - -, f 5;
#X obj 211 47 * 1500;
#X floatatom 673 63 5 0 0 0 - - -, f 5;
#X obj 207 -274 bng 15 250 50 0 empty empty empty 17 7 0 10 -262144
-1 -1;
#X obj 493 -11 * 0.5;
#X obj 673 45 autonorm 700 900;
#X obj 212 -69 autonorm 10 20;
#X obj 75 131 * 2;
#X obj 620 -84 hsl 128 15 0 127 0 0 empty empty empty -2 -8 0 10 -262144
-1 -1 3100 1;
#X obj 619 -51 / 127;
#X obj 673 116 line;
#X obj 673 98 pack 0 1000;
#X msg 785 -89 read -resize DongWaiting.wav temp-sample;
#X obj 673 80 * 500;
#X obj 787 167 *~ 5;
#X msg 830 2 45;
#X obj 785 134 vcf~ 100;
#X connect 1 0 67 0;
#X connect 2 0 7 0;
#X connect 3 0 2 0;
#X connect 3 0 4 0;
#X connect 3 0 29 0;
#X connect 5 0 3 0;
#X connect 5 0 51 0;
#X connect 5 0 6 0;
#X connect 6 0 2 0;
#X connect 7 0 1 0;
#X connect 7 0 75 0;
#X connect 7 1 14 0;
#X connect 7 2 36 0;
#X connect 7 3 21 0;
#X connect 7 4 37 0;
#X connect 7 4 99 0;
#X connect 7 5 28 0;
#X connect 8 0 10 0;
#X connect 9 0 10 0;
#X connect 10 0 77 0;
#X connect 11 0 13 0;
#X connect 12 0 13 0;
#X connect 13 0 77 0;
#X connect 14 0 8 0;
#X connect 14 1 9 0;
#X connect 14 2 11 0;
#X connect 14 3 12 0;
#X connect 15 0 17 0;
#X connect 16 0 17 0;
#X connect 17 0 54 0;
#X connect 18 0 20 0;
#X connect 19 0 20 0;
#X connect 20 0 54 0;
#X connect 21 0 15 0;
#X connect 21 1 16 0;
#X connect 21 2 18 0;
#X connect 21 3 19 0;
#X connect 22 0 24 0;
#X connect 23 0 24 0;
#X connect 24 0 90 1;
#X connect 25 0 27 0;
#X connect 26 0 27 0;
#X connect 27 0 90 1;
#X connect 28 0 22 0;
#X connect 28 1 23 0;
#X connect 28 2 25 0;
#X connect 28 3 26 0;
#X connect 29 0 30 0;
#X connect 29 0 31 0;
#X connect 30 0 29 1;
#X connect 32 0 29 0;
#X connect 33 0 35 0;
#X connect 34 0 35 0;
#X connect 36 0 50 0;
#X connect 37 0 90 0;
#X connect 38 0 43 0;
#X connect 39 0 49 2;
#X connect 40 0 98 0;
#X connect 41 0 40 0;
#X connect 42 0 39 0;
#X connect 43 0 49 0;
#X connect 44 0 49 1;
#X connect 45 0 44 0;
#X connect 46 0 45 0;
#X connect 47 0 42 0;
#X connect 49 0 56 0;
#X connect 50 0 41 0;
#X connect 51 0 2 0;
#X connect 51 0 32 0;
#X connect 52 0 0 0;
#X connect 53 0 0 1;
#X connect 54 0 55 0;
#X connect 55 0 56 1;
#X connect 56 0 53 0;
#X connect 56 0 52 0;
#X connect 57 0 95 0;
#X connect 58 0 57 0;
#X connect 59 0 66 0;
#X connect 60 0 101 0;
#X connect 61 0 60 0;
#X connect 62 0 59 0;
#X connect 63 0 62 0;
#X connect 64 0 76 0;
#X connect 65 0 62 1;
#X connect 66 0 64 0;
#X connect 67 0 70 0;
#X connect 67 0 71 0;
#X connect 68 0 69 0;
#X connect 69 0 61 0;
#X connect 70 0 61 0;
#X connect 71 0 68 0;
#X connect 72 0 52 0;
#X connect 73 0 53 0;
#X connect 74 0 63 0;
#X connect 75 0 100 0;
#X connect 76 0 73 0;
#X connect 76 0 72 0;
#X connect 77 0 78 0;
#X connect 78 0 76 1;
#X connect 79 0 87 0;
#X connect 81 0 106 0;
#X connect 82 0 89 0;
#X connect 83 0 82 0;
#X connect 84 0 85 0;
#X connect 85 0 87 0;
#X connect 85 1 83 0;
#X connect 86 0 82 0;
#X connect 87 0 86 0;
#X connect 88 0 86 1;
#X connect 89 0 110 0;
#X connect 90 0 84 0;
#X connect 91 0 53 0;
#X connect 92 0 52 0;
#X connect 93 0 109 0;
#X connect 95 0 65 0;
#X connect 96 0 107 0;
#X connect 97 0 3 0;
#X connect 98 0 38 0;
#X connect 99 0 96 0;
#X connect 100 0 58 0;
#X connect 100 0 94 0;
#X connect 101 0 64 1;
#X connect 102 0 103 0;
#X connect 103 0 96 0;
#X connect 103 0 84 0;
#X connect 104 0 110 1;
#X connect 105 0 104 0;
#X connect 106 0 79 0;
#X connect 107 0 105 0;
#X connect 108 0 92 0;
#X connect 108 0 91 0;
#X connect 109 0 88 0;
#X connect 110 0 108 0;
