#N canvas 0 87 1366 681 10;
#N canvas 0 50 450 250 (subpatch) 0;
#X array temp-speech 159568 float 2;
#X coords 0 1 159568 -1 200 140 1 0 0;
#X restore 172 201 graph;
#X msg 47 217 synth;
#X obj 407 390 dac~;
#X obj 47 21 change;
#X obj 916 7 expr floor(($f1/1024)*33)/10;
#X obj 47 181 spigot;
#X obj 94 182 tgl 15 0 empty empty empty 17 7 0 10 -262144 -1 -1 1
1;
#X msg 170 164 1;
#X msg 94 164 0;
#X obj 177 354 send unsolo;
#X obj 170 146 receive unsolo;
#X obj 94 146 receive solo;
#X obj 47 199 send solo;
#X obj 418 474 writesf~;
#X msg 523 462 stop;
#X msg 417 435 open vocal.wav \, start \;;
#X obj 275 -27 textfile;
#X msg 274 -79 rewind, f 8;
#X obj 274 -61 metro 1000;
#X obj 274 -43 bng 15 250 50 0 empty empty empty 17 7 0 10 -262144
-1 -1;
#X obj 274 -115 loadbang;
#X msg 274 -97 read sensors.dat;
#X obj 274 -10 unpack f s f s f s;
#X msg 47 57 1;
#X msg 107 57 0;
#X obj 47 90 spigot;
#X obj 78 75 tgl 15 0 empty empty empty 17 7 0 10 -262144 -1 -1 0 1
;
#X msg 168 57 1;
#X msg 228 57 0;
#X obj 173 90 spigot;
#X obj 204 75 tgl 15 0 empty empty empty 17 7 0 10 -262144 -1 -1 0
1;
#X obj 47 39 select rise-begin rise-end fall-begin fall-end none;
#N canvas 0 50 450 250 (subpatch) 0;
#X array pm-speech 187948 float 2;
#X coords 0 1 187948 -1 200 140 1 0 0;
#X restore 533 219 graph;
#X msg 417 233 synth;
#X obj 417 14 change;
#X obj 417 197 spigot;
#X obj 464 198 tgl 15 0 empty empty empty 17 7 0 10 -262144 -1 -1 1
1;
#X msg 540 180 1;
#X msg 464 180 0;
#X obj 534 367 send unsolo;
#X obj 540 162 receive unsolo;
#X obj 464 162 receive solo;
#X obj 417 215 send solo;
#X msg 417 58 1;
#X msg 477 58 0;
#X obj 417 91 spigot;
#X obj 448 76 tgl 15 0 empty empty empty 17 7 0 10 -262144 -1 -1 0
1;
#X msg 538 58 1;
#X msg 598 58 0;
#X obj 543 91 spigot;
#X obj 574 76 tgl 15 0 empty empty empty 17 7 0 10 -262144 -1 -1 0
1;
#X obj 417 40 select rise-begin rise-end fall-begin fall-end none;
#X obj 417 367 tabplay~ pm-speech;
#X obj 418 251 flite pm-speech;
#X obj 48 354 tabplay~ temp-speech;
#X obj 48 235 flite temp-speech;
#N canvas 0 50 450 250 (subpatch) 0;
#X array turbid-speech 140868 float 2;
#X coords 0 1 140868 -1 200 140 1 0 0;
#X restore 1074 217 graph;
#X msg 916 248 synth;
#X obj 916 29 change;
#X obj 916 212 spigot;
#X obj 963 213 tgl 15 0 empty empty empty 17 7 0 10 -262144 -1 -1 1
1;
#X msg 1039 195 1;
#X msg 963 195 0;
#X obj 1061 368 send unsolo;
#X obj 1039 177 receive unsolo;
#X obj 963 177 receive solo;
#X obj 916 230 send solo;
#X msg 916 73 1;
#X msg 976 73 0;
#X obj 916 106 spigot;
#X obj 947 91 tgl 15 0 empty empty empty 17 7 0 10 -262144 -1 -1 0
1;
#X msg 1037 73 1;
#X msg 1097 73 0;
#X obj 1042 106 spigot;
#X obj 1073 91 tgl 15 0 empty empty empty 17 7 0 10 -262144 -1 -1 0
1;
#X obj 916 55 select rise-begin rise-end fall-begin fall-end none;
#X obj 917 266 flite turbid-speech;
#X obj 916 368 tabplay~ turbid-speech;
#X obj 47 -22 expr floor($f1*10)/10;
#X obj 403 -11 print;
#X obj 466 -43 f;
#X obj 488 -43 + 1;
#X obj 466 -25 print;
#X msg 466 -61 0;
#X msg 47 108 text temperature rising. now \$1 degrees;
#X msg 173 126 text temperature falling. now \$1 degrees;
#X msg 416 111 text air particulate matter rising. now \$1 micrograms
per meter cubed;
#X msg 543 127 text air particulate matter falling. now \$1 micrograms
per meter cubed;
#X msg 915 124 text turbidity rising. now \$1 volts;
#X msg 1041 141 text turbidity falling. now \$1 volts;
#X obj 14 20 print;
#X connect 1 0 55 0;
#X connect 3 0 25 0;
#X connect 3 0 29 0;
#X connect 4 0 58 0;
#X connect 5 0 12 0;
#X connect 5 0 1 0;
#X connect 5 0 54 0;
#X connect 6 0 5 1;
#X connect 7 0 6 0;
#X connect 8 0 6 0;
#X connect 10 0 7 0;
#X connect 11 0 8 0;
#X connect 14 0 13 0;
#X connect 15 0 13 0;
#X connect 16 0 22 0;
#X connect 16 0 79 0;
#X connect 17 0 16 0;
#X connect 17 0 83 0;
#X connect 18 0 16 0;
#X connect 18 0 19 0;
#X connect 18 0 80 0;
#X connect 20 0 18 0;
#X connect 20 0 17 0;
#X connect 20 0 21 0;
#X connect 21 0 16 0;
#X connect 22 0 78 0;
#X connect 22 1 31 0;
#X connect 22 2 34 0;
#X connect 22 3 51 0;
#X connect 22 4 4 0;
#X connect 22 5 75 0;
#X connect 23 0 26 0;
#X connect 24 0 26 0;
#X connect 25 0 5 0;
#X connect 25 0 84 0;
#X connect 26 0 25 1;
#X connect 27 0 30 0;
#X connect 28 0 30 0;
#X connect 29 0 85 0;
#X connect 29 0 5 0;
#X connect 30 0 29 1;
#X connect 31 0 23 0;
#X connect 31 1 24 0;
#X connect 31 2 27 0;
#X connect 31 3 28 0;
#X connect 33 0 53 0;
#X connect 34 0 45 0;
#X connect 34 0 49 0;
#X connect 35 0 42 0;
#X connect 35 0 33 0;
#X connect 35 0 52 0;
#X connect 36 0 35 1;
#X connect 37 0 36 0;
#X connect 38 0 36 0;
#X connect 40 0 37 0;
#X connect 41 0 38 0;
#X connect 43 0 46 0;
#X connect 44 0 46 0;
#X connect 45 0 86 0;
#X connect 45 0 35 0;
#X connect 46 0 45 1;
#X connect 47 0 50 0;
#X connect 48 0 50 0;
#X connect 49 0 87 0;
#X connect 49 0 35 0;
#X connect 50 0 49 1;
#X connect 51 0 43 0;
#X connect 51 1 44 0;
#X connect 51 2 47 0;
#X connect 51 3 48 0;
#X connect 52 0 2 0;
#X connect 52 0 2 1;
#X connect 52 0 13 0;
#X connect 52 1 39 0;
#X connect 54 0 2 0;
#X connect 54 0 2 1;
#X connect 54 0 13 0;
#X connect 54 1 9 0;
#X connect 57 0 76 0;
#X connect 58 0 69 0;
#X connect 58 0 73 0;
#X connect 59 0 66 0;
#X connect 59 0 57 0;
#X connect 59 0 77 0;
#X connect 60 0 59 1;
#X connect 61 0 60 0;
#X connect 62 0 60 0;
#X connect 64 0 61 0;
#X connect 65 0 62 0;
#X connect 67 0 70 0;
#X connect 68 0 70 0;
#X connect 69 0 88 0;
#X connect 69 0 59 0;
#X connect 70 0 69 1;
#X connect 71 0 74 0;
#X connect 72 0 74 0;
#X connect 73 0 89 0;
#X connect 73 0 59 0;
#X connect 74 0 73 1;
#X connect 75 0 67 0;
#X connect 75 1 68 0;
#X connect 75 2 71 0;
#X connect 75 3 72 0;
#X connect 77 0 2 0;
#X connect 77 0 2 1;
#X connect 77 0 13 0;
#X connect 77 1 63 0;
#X connect 78 0 3 0;
#X connect 78 0 90 0;
#X connect 80 0 82 0;
#X connect 80 0 81 0;
#X connect 81 0 80 1;
#X connect 83 0 80 0;
#X connect 84 0 55 0;
#X connect 85 0 55 0;
#X connect 86 0 53 0;
#X connect 87 0 53 0;
#X connect 88 0 76 0;
#X connect 89 0 76 0;
