#N canvas 14 56 1906 852 12;
#X declare -path abs;
#X obj 242 1527 declare -path abs;
#X obj 574 259 gplfo_module;
#X obj 588 531 gplfo_module;
#X obj 1169 310 jags_module;
#X obj 1714 310 jags_module;
#X obj 1023 690 jags_master_vol;
#X obj 585 828 dac~;
#X obj 576 461 state2volume;
#X obj 64 326 textfile;
#X msg 161 296 rewind, f 8;
#X obj 40 327 bng 15 250 50 0 empty empty empty 17 7 0 10 -262144 -1
-1;
#X obj 63 357 unpack f s f s f s;
#X obj 333 421 print turbidity;
#X obj 332 356 print temp state;
#X obj 332 401 print pm2.5 state;
#X obj 333 443 print turbidity state;
#X obj 296 336 print temperature degrees;
#X obj 332 379 print pm2.5 mg per m3;
#X obj 65 241 bng 15 250 50 0 empty empty empty 17 7 0 10 -262144 -1
-1;
#X obj 64 215 loadbang;
#X obj 65 296 metro 1000;
#X obj 65 262 t b b b;
#X obj 203 232 openpanel;
#X obj 203 210 bng 15 250 50 0 empty empty empty 17 7 0 10 -262144
-1 -1;
#X msg 249 296 read \$1;
#X obj 203 265 t b b a;
#X obj 39 297 tgl 15 0 empty empty empty 17 7 0 10 -262144 -1 -1 1
1;
#X obj 38 394 s temp;
#X obj 31 444 s temp_state;
#X obj 110 416 s air;
#X obj 139 444 s air_state;
#X obj 187 415 s turb;
#X obj 232 443 s turb_state;
#X obj 776 79 r temp;
#X obj 775 105 scale 10 15 0.952 0.031;
#X floatatom 775 129 5 0 0 0 - - -;
#X floatatom 957 130 5 0 0 0 - - -;
#X obj 957 106 scale 10 15 0 6614;
#X obj 958 80 r temp;
#X floatatom 1338 209 5 0 0 0 - - -;
#X floatatom 1168 204 5 0 0 0 - - -;
#X obj 1168 180 scale 10 90 147 11;
#X obj 1169 155 r air;
#X obj 1338 155 r air;
#X floatatom 2096 200 5 0 0 0 - - -;
#X floatatom 1713 202 5 0 0 0 - - -;
#X floatatom 1928 202 5 0 0 0 - - -;
#X obj 2096 176 scale 700 900 0 7.619;
#X obj 1714 177 scale 700 800 4000 258;
#X obj 1713 150 r turb;
#X obj 2095 150 r turb;
#X obj 1927 151 r turb;
#X obj 853 462 state2volume;
#X obj 672 430 r temp_state;
#X obj 941 425 r temp_state;
#X obj 653 430 bng 15 250 50 0 empty empty empty 17 7 0 10 -262144
-1 -1;
#X obj 1132 95 state2volume;
#X obj 1250 68 r air_state;
#X floatatom 1339 128 5 0 0 0 - - -;
#X obj 1714 88 state2volume;
#X floatatom 1925 119 5 0 0 0 - - -;
#X obj 1833 63 r turb_state;
#X obj 1928 177 scale 700 800 -1 -7;
#X obj 37 21 cnv 15 60 60 empty empty Modular_Sonification_Lab 20 12
0 30 -228856 -66577 0;
#X floatatom 576 226 5 0 0 0 - - -;
#X obj 578 180 loadbang;
#X floatatom 642 226 5 0 0 0 - - -;
#X obj 643 180 loadbang;
#X floatatom 707 226 5 0 0 0 - - -;
#X obj 708 180 loadbang;
#X floatatom 773 226 5 0 0 0 - - -;
#X obj 774 180 loadbang;
#X floatatom 840 226 5 0 0 0 - - -;
#X obj 840 180 loadbang;
#X floatatom 906 226 5 0 0 0 - - -;
#X obj 907 180 loadbang;
#X floatatom 1223 286 5 0 0 0 - - -;
#X obj 1224 240 loadbang;
#X floatatom 1309 285 5 0 0 0 - - -;
#X obj 1310 239 loadbang;
#X floatatom 1375 285 5 0 0 0 - - -;
#X obj 1376 239 loadbang;
#X floatatom 1438 286 5 0 0 0 - - -;
#X obj 1439 240 loadbang;
#X floatatom 1504 286 5 0 0 0 - - -;
#X obj 1505 240 loadbang;
#X floatatom 1567 285 5 0 0 0 - - -;
#X obj 1568 239 loadbang;
#X floatatom 1630 285 5 0 0 0 - - -;
#X obj 1631 239 loadbang;
#X floatatom 1766 282 5 0 0 0 - - -;
#X obj 1767 236 loadbang;
#X floatatom 1877 282 5 0 0 0 - - -;
#X obj 1878 236 loadbang;
#X floatatom 1973 282 5 0 0 0 - - -;
#X obj 1974 236 loadbang;
#X floatatom 2039 282 5 0 0 0 - - -;
#X obj 2040 236 loadbang;
#X floatatom 2105 282 5 0 0 0 - - -;
#X obj 2106 236 loadbang;
#X floatatom 2172 282 5 0 0 0 - - -;
#X obj 2173 236 loadbang;
#X text 226 207 << open data file;
#X msg 578 203 1;
#X msg 643 203 1;
#X msg 708 203 0;
#X msg 774 203 0;
#X msg 907 203 0.3;
#X obj 770 406 loadbang;
#X msg 770 429 100;
#X msg 1224 263 0.157;
#X msg 1310 262 -2.15;
#X msg 1376 262 0.5;
#X msg 1439 263 1000;
#X msg 1505 263 131.4;
#X msg 1568 262 0;
#X msg 1631 262 50;
#X msg 1767 259 0.118;
#X msg 1878 259 313.8;
#X msg 1974 259 0.5;
#X msg 2040 259 878.7;
#X msg 2106 259 159.5;
#X msg 2173 259 39.39;
#X msg 280 232 symbol fake-sensors2.dat;
#X msg 840 202 0;
#X text 773 27 4 different number entries in scale box = min max data
ranges \, then min max parameter responses.;
#X msg 483 90;
#X text 517 85 = message box. Use to store a paramter.;
#X floatatom 483 123 5 0 0 0 - - -;
#X text 526 123 = number box Use to test and read those values;
#X text 57 125 xbox beside metro 1000 Stops data play. Hit rewind \,
then the xbox again and after 1 sec lag \, it will play from start
again.;
#X text 92 800 Federico Ghelli Visi for Bicrophonic Research Institue
& FoAM Sonic Kayaks 2020 mail@federicovisi.com;
#X obj 1339 181 scale 10 90 1 1500;
#X connect 1 0 7 0;
#X connect 1 1 52 0;
#X connect 2 0 6 0;
#X connect 2 1 6 1;
#X connect 5 0 6 0;
#X connect 5 1 6 1;
#X connect 7 0 6 0;
#X connect 8 0 11 0;
#X connect 9 0 8 0;
#X connect 11 0 16 0;
#X connect 11 0 27 0;
#X connect 11 1 13 0;
#X connect 11 1 28 0;
#X connect 11 2 17 0;
#X connect 11 2 29 0;
#X connect 11 3 14 0;
#X connect 11 3 30 0;
#X connect 11 4 12 0;
#X connect 11 4 31 0;
#X connect 11 5 15 0;
#X connect 11 5 32 0;
#X connect 18 0 21 0;
#X connect 19 0 18 0;
#X connect 20 0 8 0;
#X connect 20 0 10 0;
#X connect 21 0 26 0;
#X connect 21 1 9 0;
#X connect 22 0 25 0;
#X connect 23 0 22 0;
#X connect 24 0 8 0;
#X connect 25 0 20 0;
#X connect 25 1 9 0;
#X connect 25 2 24 0;
#X connect 26 0 20 0;
#X connect 33 0 34 0;
#X connect 34 0 35 0;
#X connect 35 0 1 6;
#X connect 36 0 1 7;
#X connect 37 0 36 0;
#X connect 38 0 37 0;
#X connect 39 0 3 3;
#X connect 40 0 3 0;
#X connect 41 0 40 0;
#X connect 42 0 41 0;
#X connect 43 0 132 0;
#X connect 44 0 4 7;
#X connect 45 0 4 0;
#X connect 46 0 4 4;
#X connect 47 0 44 0;
#X connect 48 0 45 0;
#X connect 49 0 48 0;
#X connect 50 0 47 0;
#X connect 51 0 62 0;
#X connect 52 0 6 1;
#X connect 53 0 55 0;
#X connect 53 0 7 1;
#X connect 54 0 52 1;
#X connect 56 1 3 2;
#X connect 56 1 58 0;
#X connect 57 0 56 1;
#X connect 59 1 60 0;
#X connect 59 1 4 2;
#X connect 61 0 59 1;
#X connect 62 0 46 0;
#X connect 64 0 1 0;
#X connect 65 0 103 0;
#X connect 66 0 1 1;
#X connect 67 0 104 0;
#X connect 68 0 1 2;
#X connect 69 0 105 0;
#X connect 70 0 1 3;
#X connect 71 0 106 0;
#X connect 72 0 1 4;
#X connect 73 0 124 0;
#X connect 74 0 1 5;
#X connect 75 0 107 0;
#X connect 76 0 3 1;
#X connect 77 0 110 0;
#X connect 78 0 3 4;
#X connect 79 0 111 0;
#X connect 80 0 3 5;
#X connect 81 0 112 0;
#X connect 82 0 3 6;
#X connect 83 0 113 0;
#X connect 84 0 3 7;
#X connect 85 0 114 0;
#X connect 86 0 3 8;
#X connect 87 0 115 0;
#X connect 88 0 3 9;
#X connect 89 0 116 0;
#X connect 90 0 4 1;
#X connect 91 0 117 0;
#X connect 92 0 4 3;
#X connect 93 0 118 0;
#X connect 94 0 4 5;
#X connect 95 0 119 0;
#X connect 96 0 4 6;
#X connect 97 0 120 0;
#X connect 98 0 4 8;
#X connect 99 0 121 0;
#X connect 100 0 4 9;
#X connect 101 0 122 0;
#X connect 103 0 64 0;
#X connect 104 0 66 0;
#X connect 105 0 68 0;
#X connect 106 0 70 0;
#X connect 107 0 74 0;
#X connect 108 0 109 0;
#X connect 109 0 7 2;
#X connect 109 0 52 2;
#X connect 110 0 76 0;
#X connect 111 0 78 0;
#X connect 112 0 80 0;
#X connect 113 0 82 0;
#X connect 114 0 84 0;
#X connect 115 0 86 0;
#X connect 116 0 88 0;
#X connect 117 0 90 0;
#X connect 118 0 92 0;
#X connect 119 0 94 0;
#X connect 120 0 96 0;
#X connect 121 0 98 0;
#X connect 122 0 100 0;
#X connect 123 0 25 0;
#X connect 124 0 72 0;
#X connect 132 0 39 0;
